<svg xmlns="http://www.w3.org/2000/svg" xmlns:xlink="http://www.w3.org/1999/xlink" width="500" zoomAndPan="magnify" viewBox="0 0 375 374.999991" height="500" preserveAspectRatio="xMidYMid meet" version="1.0"><defs><clipPath id="c44869b487"><path d="M 232 194 L 269 194 L 269 238 L 232 238 Z M 232 194 " clip-rule="nonzero"/></clipPath><clipPath id="104897b9d7"><path d="M 231.585938 194.984375 L 268.476562 194.5625 L 268.964844 237.035156 L 232.074219 237.457031 Z M 231.585938 194.984375 " clip-rule="nonzero"/></clipPath><clipPath id="a8750a5559"><path d="M 246.65625 218.714844 C 255.289062 208.617188 256.015625 209.859375 256.015625 209.859375 C 256.015625 209.859375 254.753906 208.625 254.574219 208.625 C 254.398438 208.808594 255.660156 209.863281 255.308594 210.582031 C 254.800781 212.730469 244.890625 220.339844 243.101562 220.003906 C 242.566406 220.011719 242.019531 219.125 242.191406 218.410156 C 242.875 215.902344 261.652344 203.191406 264.15625 203.695312 C 264.695312 203.871094 265.238281 204.578125 265.066406 205.292969 C 264.566406 208.15625 245.96875 221.042969 241.898438 223.945312 C 240.480469 225.03125 239.246094 226.117188 238.886719 225.945312 C 238.527344 225.769531 238.335938 224.699219 238.683594 223.984375 C 239.910156 222.003906 252.875 215.964844 253.054688 216.140625 C 253.234375 216.496094 237.671875 229.171875 235.703125 228.65625 C 234.988281 228.488281 234.800781 227.777344 234.792969 227.0625 C 234.957031 225.988281 237.972656 224.167969 239.917969 222.539062 C 242.570312 220.367188 248.042969 215.128906 249.648438 215.109375 C 250.1875 215.101562 250.90625 215.808594 250.914062 216.34375 C 250.753906 217.953125 240.84375 225.386719 239.054688 225.226562 C 238.339844 225.058594 237.796875 224.527344 237.96875 223.8125 C 238.292969 221.132812 256.332031 206.285156 259.007812 206.253906 C 259.726562 206.425781 260.265625 206.777344 260.273438 207.488281 C 260.296875 209.632812 246.351562 223.359375 244.210938 223.203125 C 243.675781 223.210938 243.128906 222.503906 243.121094 221.789062 C 243.277344 219.824219 256.199219 210.394531 256.019531 210.214844 C 255.839844 210.039062 242.589844 222.152344 239.214844 223.441406 C 237.96875 223.8125 236.539062 223.828125 236.359375 223.472656 C 236.175781 223.117188 237.765625 221.851562 239.359375 220.40625 C 243.601562 216.964844 263.242188 201.742188 265.394531 202.789062 C 265.933594 203.140625 265.953125 204.570312 265.433594 206.003906 C 263.871094 209.949219 249.230469 225.289062 247.085938 224.957031 C 246.546875 224.785156 246.179688 223.71875 246.171875 223.003906 C 246.503906 221.035156 252.511719 215.433594 254.101562 213.988281 C 254.808594 213.445312 255.515625 212.898438 255.695312 213.078125 C 256.054688 213.25 256.421875 213.960938 256.070312 214.679688 C 255.214844 217.722656 236.855469 235.605469 234.351562 235.277344 C 233.816406 235.285156 233.449219 234.574219 233.441406 233.859375 C 233.945312 231 248.644531 220.65625 254.128906 216.484375 C 257.667969 213.945312 261.554688 210.332031 262.988281 210.671875 C 263.703125 210.664062 264.066406 211.375 264.074219 212.085938 C 263.746094 214.589844 243.566406 229.460938 243.390625 229.460938 C 243.386719 229.285156 259.613281 212.316406 262.648438 212.105469 C 263.359375 212.097656 264.257812 212.621094 264.265625 213.15625 C 264.285156 214.941406 251.332031 221.515625 246.023438 225.683594 C 241.246094 229.488281 235.621094 237.050781 233.480469 237.25 C 232.949219 237.4375 232.230469 237.085938 232.222656 236.550781 C 231.839844 234.234375 259.84375 216.597656 260.332031 212.488281 C 260.496094 211.414062 259.589844 210.175781 258.699219 210.1875 C 256.550781 209.855469 247.402344 221.5625 245.261719 221.585938 C 244.546875 221.59375 244.007812 221.066406 244 220.53125 C 243.789062 217.855469 264.4375 197.089844 267.117188 197.238281 C 267.832031 197.226562 268.375 197.9375 268.382812 198.472656 C 268.058594 201.511719 239.542969 220.9375 239.542969 220.9375 C 239.542969 221.117188 263.757812 199.953125 266.617188 200.277344 C 267.332031 200.449219 267.875 200.976562 267.703125 201.691406 C 267.382812 204.730469 243.132812 222.683594 239.386719 222.902344 C 238.671875 222.910156 237.945312 221.847656 237.765625 221.851562 C 237.769531 222.03125 239.035156 223.265625 238.855469 223.265625 C 238.855469 223.445312 237.777344 222.742188 237.59375 222.386719 C 237.589844 221.851562 238.476562 221.484375 239.359375 220.582031 C 242.363281 217.871094 258.085938 203.589844 260.769531 203.914062 C 261.304688 203.910156 261.847656 204.617188 261.855469 205.328125 C 261.527344 207.832031 244.171875 219.8125 240.457031 222.710938 C 239.039062 223.800781 238.335938 224.699219 237.621094 224.707031 C 237.261719 224.535156 236.542969 224.007812 236.714844 223.46875 C 236.863281 220.96875 254.355469 205.238281 256.855469 205.386719 C 257.570312 205.378906 258.113281 206.085938 258.121094 206.621094 C 257.96875 208.765625 246.65625 218.714844 243.984375 219.28125 C 243.273438 219.46875 242.378906 219.121094 242.195312 218.765625 C 242.011719 218.410156 242.542969 217.867188 243.066406 216.96875 C 245.347656 213.550781 262.445312 194.613281 265.125 194.761719 C 265.660156 194.753906 266.203125 195.285156 266.210938 195.996094 C 265.890625 199.394531 238.164062 225.417969 234.421875 225.816406 C 233.707031 225.824219 232.988281 225.476562 232.984375 224.941406 C 232.96875 223.511719 245 214.269531 246.964844 214.425781 C 247.503906 214.597656 248.046875 215.304688 247.875 215.84375 C 247.535156 217.632812 238.320312 223.273438 235.824219 223.480469 C 234.933594 223.667969 233.679688 223.324219 233.671875 222.613281 C 233.105469 219.941406 259.960938 195.710938 263.175781 196.03125 C 263.890625 196.023438 264.4375 196.910156 264.269531 197.804688 C 264.113281 199.769531 256.707031 207.886719 255.101562 207.90625 C 254.566406 207.914062 254.015625 206.667969 254.015625 206.492188 C 254.015625 206.492188 255.453125 207.546875 255.453125 207.546875 C 255.453125 207.546875 254.023438 207.203125 254.015625 206.667969 C 253.820312 205.242188 260.515625 197.667969 261.941406 197.472656 C 262.480469 197.46875 263.195312 197.816406 263.203125 198.351562 C 263.234375 201.03125 239.382812 222.546875 235.464844 223.304688 C 234.574219 223.496094 233.675781 222.96875 233.671875 222.613281 C 233.476562 221.363281 243.398438 214.824219 245.71875 214.796875 C 246.789062 214.785156 247.6875 215.3125 247.875 216.023438 C 247.894531 217.808594 236.210938 226.152344 234.246094 225.996094 C 233.707031 225.824219 233.164062 225.296875 233.15625 224.582031 C 233.472656 221.007812 261.910156 194.441406 265.125 194.761719 C 265.660156 194.753906 266.203125 195.285156 266.210938 195.996094 C 265.886719 198.855469 242.71875 217.867188 242.898438 217.863281 C 242.902344 218.042969 254.890625 205.230469 256.855469 205.386719 C 257.570312 205.378906 258.113281 206.085938 258.121094 206.621094 C 257.972656 209.300781 241.007812 224.132812 237.976562 224.527344 C 237.261719 224.535156 236.542969 224.1875 236.539062 223.648438 C 236.335938 221.6875 252.796875 209.183594 257.222656 206.097656 C 259.171875 204.824219 261.476562 203.550781 261.65625 203.726562 C 262.019531 204.078125 260.96875 205.875 259.734375 207.316406 C 256.5625 210.925781 241.535156 223.59375 238.855469 223.265625 C 238.320312 223.273438 237.777344 222.566406 237.765625 221.851562 C 238.101562 219.703125 247.847656 213.523438 252.804688 209.898438 C 257.046875 206.457031 263.054688 201.03125 265.550781 200.644531 C 266.441406 200.636719 267.699219 201.15625 267.703125 201.691406 C 267.910156 204.011719 239.90625 221.46875 239.542969 220.9375 C 239.179688 220.40625 264.789062 196.550781 267.117188 197.238281 C 267.832031 197.40625 268.023438 198.476562 267.855469 199.371094 C 267.34375 201.519531 262.390625 205.324219 259.035156 208.574219 C 255.332031 212.367188 249.167969 219.757812 246.324219 220.859375 C 245.253906 221.050781 244.007812 221.066406 244 220.53125 C 243.628906 219.285156 256 208.609375 259.03125 208.039062 C 260.097656 207.847656 260.996094 208.375 261.539062 209.082031 C 262.265625 209.964844 262.644531 211.746094 261.945312 213.363281 C 260.039062 218.023438 244.117188 230.703125 238.621094 234.160156 C 235.960938 235.617188 232.410156 237.085938 232.222656 236.550781 C 231.5 235.667969 250.949219 219.558594 256.617188 215.566406 C 259.449219 213.570312 261.925781 211.578125 263.179688 211.742188 C 263.890625 211.734375 264.4375 212.441406 264.261719 212.976562 C 264.113281 215.300781 249.78125 226.355469 245.699219 228.542969 C 243.925781 229.457031 241.96875 230.015625 241.605469 229.660156 C 241.058594 228.597656 258.710938 211.433594 261.921875 211.042969 C 262.8125 211.03125 263.890625 211.554688 263.894531 212.089844 C 264.105469 214.765625 237.570312 235.777344 234.351562 235.277344 C 233.816406 235.285156 233.273438 234.578125 233.445312 234.039062 C 233.589844 231.179688 252.480469 212.933594 255.160156 213.082031 C 255.699219 213.253906 256.238281 213.785156 256.246094 214.5 C 256.269531 216.28125 249.042969 224.398438 247.261719 224.777344 C 246.546875 224.785156 245.832031 224.4375 245.644531 223.902344 C 245.441406 221.585938 262.542969 203 265.039062 202.972656 C 265.753906 202.964844 266.476562 203.492188 266.304688 204.207031 C 266.15625 206.886719 240.480469 224.855469 237.617188 224.351562 C 236.902344 224.179688 236.535156 223.472656 236.707031 222.753906 C 237.390625 220.25 253.503906 208.816406 256.011719 209.503906 C 256.726562 209.671875 257.277344 210.738281 257.109375 211.632812 C 256.777344 213.957031 245.996094 223.363281 244.210938 223.203125 C 243.675781 223.210938 243.128906 222.503906 243.121094 221.789062 C 243.273438 219.46875 256.511719 206.460938 259.007812 206.253906 C 259.542969 206.25 260.265625 206.777344 260.269531 207.3125 C 260.292969 209.097656 248.964844 217.617188 244.898438 220.875 C 242.421875 222.867188 239.417969 225.582031 238.878906 225.230469 C 238.519531 225.054688 238.503906 223.628906 239.207031 222.726562 C 240.253906 220.75 245.738281 216.402344 248.050781 215.84375 C 249.121094 215.652344 250.730469 215.8125 250.914062 216.34375 C 251.289062 217.769531 237.847656 228.8125 235.878906 228.476562 C 235.167969 228.484375 234.800781 227.777344 234.792969 227.0625 C 235.132812 225.453125 242.75 220.367188 246.292969 218.183594 C 248.953125 216.722656 253.570312 214.351562 253.933594 214.882812 C 254.292969 215.234375 252.714844 217.574219 251.121094 218.839844 C 248.648438 221.191406 240.5 226.460938 239.0625 225.941406 C 238.527344 225.769531 238.335938 224.878906 238.507812 223.984375 C 239.714844 220.578125 261.652344 203.191406 263.980469 203.878906 C 264.519531 204.050781 264.707031 205.117188 264.539062 205.835938 C 263.5 208.523438 250.378906 216.351562 246.476562 218.539062 C 244.703125 219.449219 243.285156 220.359375 242.566406 220.011719 C 242.207031 219.835938 242.191406 218.410156 242.191406 218.410156 C 242.191406 218.410156 242.925781 220.183594 242.925781 220.183594 C 242.925781 220.183594 242.023438 219.304688 242.015625 218.765625 C 242.351562 216.800781 252.433594 208.652344 254.574219 208.625 C 255.289062 208.617188 255.828125 209.148438 256.015625 209.859375 C 256.214844 211.464844 249.699219 219.394531 248.09375 219.589844 C 247.382812 219.777344 246.65625 218.714844 246.65625 218.714844 " clip-rule="nonzero"/></clipPath><clipPath id="157e576424"><path d="M 0 0.398438 L 36.558594 0.398438 L 36.558594 43.601562 L 0 43.601562 Z M 0 0.398438 " clip-rule="nonzero"/></clipPath><clipPath id="e1e478941a"><path d="M -0.414062 0.984375 L 36.476562 0.5625 L 36.964844 43.035156 L 0.0742188 43.457031 Z M -0.414062 0.984375 " clip-rule="nonzero"/></clipPath><clipPath id="7d46db0265"><path d="M 14.65625 24.714844 C 23.289062 14.617188 24.015625 15.859375 24.015625 15.859375 C 24.015625 15.859375 22.753906 14.625 22.574219 14.625 C 22.398438 14.808594 23.660156 15.863281 23.308594 16.582031 C 22.800781 18.730469 12.890625 26.339844 11.101562 26.003906 C 10.566406 26.011719 10.019531 25.125 10.191406 24.410156 C 10.875 21.902344 29.652344 9.191406 32.15625 9.695312 C 32.695312 9.871094 33.238281 10.578125 33.066406 11.292969 C 32.566406 14.15625 13.96875 27.042969 9.898438 29.945312 C 8.480469 31.03125 7.246094 32.117188 6.886719 31.945312 C 6.527344 31.769531 6.335938 30.699219 6.683594 29.984375 C 7.910156 28.003906 20.875 21.964844 21.054688 22.140625 C 21.234375 22.496094 5.671875 35.171875 3.703125 34.65625 C 2.988281 34.488281 2.800781 33.777344 2.792969 33.0625 C 2.957031 31.988281 5.972656 30.167969 7.917969 28.539062 C 10.570312 26.367188 16.042969 21.128906 17.648438 21.109375 C 18.1875 21.101562 18.90625 21.808594 18.914062 22.34375 C 18.753906 23.953125 8.84375 31.386719 7.054688 31.226562 C 6.339844 31.058594 5.796875 30.527344 5.96875 29.8125 C 6.292969 27.132812 24.332031 12.285156 27.007812 12.253906 C 27.726562 12.425781 28.265625 12.777344 28.273438 13.488281 C 28.296875 15.632812 14.351562 29.359375 12.210938 29.203125 C 11.675781 29.210938 11.128906 28.503906 11.121094 27.789062 C 11.277344 25.824219 24.199219 16.394531 24.019531 16.214844 C 23.839844 16.039062 10.589844 28.152344 7.214844 29.441406 C 5.96875 29.8125 4.539062 29.828125 4.359375 29.472656 C 4.175781 29.117188 5.765625 27.851562 7.359375 26.40625 C 11.601562 22.964844 31.242188 7.742188 33.394531 8.789062 C 33.933594 9.140625 33.953125 10.570312 33.433594 12.003906 C 31.871094 15.949219 17.230469 31.289062 15.085938 30.957031 C 14.546875 30.785156 14.179688 29.71875 14.171875 29.003906 C 14.503906 27.035156 20.511719 21.433594 22.101562 19.988281 C 22.808594 19.445312 23.515625 18.898438 23.695312 19.078125 C 24.054688 19.25 24.421875 19.960938 24.070312 20.679688 C 23.214844 23.722656 4.855469 41.605469 2.351562 41.277344 C 1.816406 41.285156 1.449219 40.574219 1.441406 39.859375 C 1.945312 37 16.644531 26.65625 22.128906 22.484375 C 25.667969 19.945312 29.554688 16.332031 30.988281 16.671875 C 31.703125 16.664062 32.066406 17.375 32.074219 18.085938 C 31.746094 20.589844 11.566406 35.460938 11.390625 35.460938 C 11.386719 35.285156 27.613281 18.316406 30.648438 18.105469 C 31.359375 18.097656 32.257812 18.621094 32.265625 19.15625 C 32.285156 20.941406 19.332031 27.515625 14.023438 31.683594 C 9.246094 35.488281 3.621094 43.050781 1.480469 43.25 C 0.949219 43.4375 0.230469 43.085938 0.222656 42.550781 C -0.160156 40.234375 27.84375 22.597656 28.332031 18.488281 C 28.496094 17.414062 27.589844 16.175781 26.699219 16.1875 C 24.550781 15.855469 15.402344 27.5625 13.261719 27.585938 C 12.546875 27.59375 12.007812 27.066406 12 26.53125 C 11.789062 23.855469 32.4375 3.089844 35.117188 3.238281 C 35.832031 3.226562 36.375 3.9375 36.382812 4.472656 C 36.058594 7.511719 7.542969 26.9375 7.542969 26.9375 C 7.542969 27.117188 31.757812 5.953125 34.617188 6.277344 C 35.332031 6.449219 35.875 6.976562 35.703125 7.691406 C 35.382812 10.730469 11.132812 28.683594 7.386719 28.902344 C 6.671875 28.910156 5.945312 27.847656 5.765625 27.851562 C 5.769531 28.03125 7.035156 29.265625 6.855469 29.265625 C 6.855469 29.445312 5.777344 28.742188 5.59375 28.386719 C 5.589844 27.851562 6.476562 27.484375 7.359375 26.582031 C 10.363281 23.871094 26.085938 9.589844 28.769531 9.914062 C 29.304688 9.910156 29.847656 10.617188 29.855469 11.328125 C 29.527344 13.832031 12.171875 25.8125 8.457031 28.710938 C 7.039062 29.800781 6.335938 30.699219 5.621094 30.707031 C 5.261719 30.535156 4.542969 30.007812 4.714844 29.46875 C 4.863281 26.96875 22.355469 11.238281 24.855469 11.386719 C 25.570312 11.378906 26.113281 12.085938 26.121094 12.621094 C 25.96875 14.765625 14.65625 24.714844 11.984375 25.28125 C 11.273438 25.46875 10.378906 25.121094 10.195312 24.765625 C 10.011719 24.410156 10.542969 23.867188 11.066406 22.96875 C 13.347656 19.550781 30.445312 0.613281 33.125 0.761719 C 33.660156 0.753906 34.203125 1.285156 34.210938 1.996094 C 33.890625 5.394531 6.164062 31.417969 2.421875 31.816406 C 1.707031 31.824219 0.988281 31.476562 0.984375 30.941406 C 0.96875 29.511719 13 20.269531 14.964844 20.425781 C 15.503906 20.597656 16.046875 21.304688 15.875 21.84375 C 15.535156 23.632812 6.320312 29.273438 3.824219 29.480469 C 2.933594 29.667969 1.679688 29.324219 1.671875 28.613281 C 1.105469 25.941406 27.960938 1.710938 31.175781 2.03125 C 31.890625 2.023438 32.4375 2.910156 32.269531 3.804688 C 32.113281 5.769531 24.707031 13.886719 23.101562 13.90625 C 22.566406 13.914062 22.015625 12.667969 22.015625 12.492188 C 22.015625 12.492188 23.453125 13.546875 23.453125 13.546875 C 23.453125 13.546875 22.023438 13.203125 22.015625 12.667969 C 21.820312 11.242188 28.515625 3.667969 29.941406 3.472656 C 30.480469 3.46875 31.195312 3.816406 31.203125 4.351562 C 31.234375 7.03125 7.382812 28.546875 3.464844 29.304688 C 2.574219 29.496094 1.675781 28.96875 1.671875 28.613281 C 1.476562 27.363281 11.398438 20.824219 13.71875 20.796875 C 14.789062 20.785156 15.6875 21.3125 15.875 22.023438 C 15.894531 23.808594 4.210938 32.152344 2.246094 31.996094 C 1.707031 31.824219 1.164062 31.296875 1.15625 30.582031 C 1.472656 27.007812 29.910156 0.441406 33.125 0.761719 C 33.660156 0.753906 34.203125 1.285156 34.210938 1.996094 C 33.886719 4.855469 10.71875 23.867188 10.898438 23.863281 C 10.902344 24.042969 22.890625 11.230469 24.855469 11.386719 C 25.570312 11.378906 26.113281 12.085938 26.121094 12.621094 C 25.972656 15.300781 9.007812 30.132812 5.976562 30.527344 C 5.261719 30.535156 4.542969 30.1875 4.539062 29.648438 C 4.335938 27.6875 20.796875 15.183594 25.222656 12.097656 C 27.171875 10.824219 29.476562 9.550781 29.65625 9.726562 C 30.019531 10.078125 28.96875 11.875 27.734375 13.316406 C 24.5625 16.925781 9.535156 29.59375 6.855469 29.265625 C 6.320312 29.273438 5.777344 28.566406 5.765625 27.851562 C 6.101562 25.703125 15.847656 19.523438 20.804688 15.898438 C 25.046875 12.457031 31.054688 7.03125 33.550781 6.644531 C 34.441406 6.636719 35.699219 7.15625 35.703125 7.691406 C 35.910156 10.011719 7.90625 27.46875 7.542969 26.9375 C 7.179688 26.40625 32.789062 2.550781 35.117188 3.238281 C 35.832031 3.40625 36.023438 4.476562 35.855469 5.371094 C 35.34375 7.519531 30.390625 11.324219 27.035156 14.574219 C 23.332031 18.367188 17.167969 25.757812 14.324219 26.859375 C 13.253906 27.050781 12.007812 27.066406 12 26.53125 C 11.628906 25.285156 24 14.609375 27.03125 14.039062 C 28.097656 13.847656 28.996094 14.375 29.539062 15.082031 C 30.265625 15.964844 30.644531 17.746094 29.945312 19.363281 C 28.039062 24.023438 12.117188 36.703125 6.621094 40.160156 C 3.960938 41.617188 0.410156 43.085938 0.222656 42.550781 C -0.5 41.667969 18.949219 25.558594 24.617188 21.566406 C 27.449219 19.570312 29.925781 17.578125 31.179688 17.742188 C 31.890625 17.734375 32.4375 18.441406 32.261719 18.976562 C 32.113281 21.300781 17.78125 32.355469 13.699219 34.542969 C 11.925781 35.457031 9.96875 36.015625 9.605469 35.660156 C 9.058594 34.597656 26.710938 17.433594 29.921875 17.042969 C 30.8125 17.03125 31.890625 17.554688 31.894531 18.089844 C 32.105469 20.765625 5.570312 41.777344 2.351562 41.277344 C 1.816406 41.285156 1.273438 40.578125 1.445312 40.039062 C 1.589844 37.179688 20.480469 18.933594 23.160156 19.082031 C 23.699219 19.253906 24.238281 19.785156 24.246094 20.5 C 24.269531 22.28125 17.042969 30.398438 15.261719 30.777344 C 14.546875 30.785156 13.832031 30.4375 13.644531 29.902344 C 13.441406 27.585938 30.542969 9 33.039062 8.972656 C 33.753906 8.964844 34.476562 9.492188 34.304688 10.207031 C 34.15625 12.886719 8.480469 30.855469 5.617188 30.351562 C 4.902344 30.179688 4.535156 29.472656 4.707031 28.753906 C 5.390625 26.25 21.503906 14.816406 24.011719 15.503906 C 24.726562 15.671875 25.277344 16.738281 25.109375 17.632812 C 24.777344 19.957031 13.996094 29.363281 12.210938 29.203125 C 11.675781 29.210938 11.128906 28.503906 11.121094 27.789062 C 11.273438 25.46875 24.511719 12.460938 27.007812 12.253906 C 27.542969 12.25 28.265625 12.777344 28.269531 13.3125 C 28.292969 15.097656 16.964844 23.617188 12.898438 26.875 C 10.421875 28.867188 7.417969 31.582031 6.878906 31.230469 C 6.519531 31.054688 6.503906 29.628906 7.207031 28.726562 C 8.253906 26.75 13.738281 22.402344 16.050781 21.84375 C 17.121094 21.652344 18.730469 21.8125 18.914062 22.34375 C 19.289062 23.769531 5.847656 34.8125 3.878906 34.476562 C 3.167969 34.484375 2.800781 33.777344 2.792969 33.0625 C 3.132812 31.453125 10.75 26.367188 14.292969 24.183594 C 16.953125 22.722656 21.570312 20.351562 21.933594 20.882812 C 22.292969 21.234375 20.714844 23.574219 19.121094 24.839844 C 16.648438 27.191406 8.5 32.460938 7.0625 31.941406 C 6.527344 31.769531 6.335938 30.878906 6.507812 29.984375 C 7.714844 26.578125 29.652344 9.191406 31.980469 9.878906 C 32.519531 10.050781 32.707031 11.117188 32.539062 11.835938 C 31.5 14.523438 18.378906 22.351562 14.476562 24.539062 C 12.703125 25.449219 11.285156 26.359375 10.566406 26.011719 C 10.207031 25.835938 10.191406 24.410156 10.191406 24.410156 C 10.191406 24.410156 10.925781 26.183594 10.925781 26.183594 C 10.925781 26.183594 10.023438 25.304688 10.015625 24.765625 C 10.351562 22.800781 20.433594 14.652344 22.574219 14.625 C 23.289062 14.617188 23.828125 15.148438 24.015625 15.859375 C 24.214844 17.464844 17.699219 25.394531 16.09375 25.589844 C 15.382812 25.777344 14.65625 24.714844 14.65625 24.714844 " clip-rule="nonzero"/></clipPath><clipPath id="abe2f7262b"><rect x="0" width="37" y="0" height="44"/></clipPath><clipPath id="0789ecb180"><path d="M 9.003906 20.605469 L 366 20.605469 L 366 354.355469 L 9.003906 354.355469 Z M 9.003906 20.605469 " clip-rule="nonzero"/></clipPath><clipPath id="33a2496dba"><path d="M 196 185 L 356 185 L 356 287 L 196 287 Z M 196 185 " clip-rule="nonzero"/></clipPath><clipPath id="9b3f031209"><path d="M 287.519531 142.03125 L 360.375 194.871094 L 260.417969 332.6875 L 187.5625 279.847656 Z M 287.519531 142.03125 " clip-rule="nonzero"/></clipPath><clipPath id="eb88dc6afc"><path d="M 287.519531 142.03125 L 360.375 194.871094 L 260.417969 332.6875 L 187.5625 279.847656 Z M 287.519531 142.03125 " clip-rule="nonzero"/></clipPath><clipPath id="01b5604ca8"><path d="M 287.519531 142.03125 L 360.375 194.871094 L 260.417969 332.6875 L 187.5625 279.847656 Z M 287.519531 142.03125 " clip-rule="nonzero"/></clipPath><clipPath id="db3c650713"><path d="M 35.113281 229 L 36.085938 229 L 36.085938 229.601562 L 35.113281 229.601562 Z M 35.113281 229 " clip-rule="nonzero"/></clipPath><clipPath id="1ae225c1f7"><path d="M 36.035156 229.394531 C 34.25 229.929688 35.679688 229.035156 35.679688 229.035156 " clip-rule="nonzero"/></clipPath><clipPath id="f84883f6b0"><path d="M 0.113281 0 L 1.085938 0 L 1.085938 0.601562 L 0.113281 0.601562 Z M 0.113281 0 " clip-rule="nonzero"/></clipPath><clipPath id="083c2fec3d"><path d="M 1.035156 0.394531 C -0.75 0.929688 0.679688 0.0351562 0.679688 0.0351562 " clip-rule="nonzero"/></clipPath><clipPath id="5049712fa3"><rect x="0" width="2" y="0" height="1"/></clipPath></defs><rect x="-37.5" width="450" fill="#ffffff" y="-37.499999" height="449.999989" fill-opacity="1"/><rect x="-37.5" width="450" fill="#ffffff" y="-37.499999" height="449.999989" fill-opacity="1"/><g clip-path="url(#c44869b487)"><g clip-path="url(#104897b9d7)"><g clip-path="url(#a8750a5559)"><g transform="matrix(1, 0, 0, 1, 232, 194)"><g clip-path="url(#abe2f7262b)"><g clip-path="url(#157e576424)"><g clip-path="url(#e1e478941a)"><g clip-path="url(#7d46db0265)"><path fill="#ffffff" d="M -7.472656 -5.914062 L 43.574219 -6.5 L 44.222656 50.128906 L -6.824219 50.714844 Z M -7.472656 -5.914062 " fill-opacity="1" fill-rule="nonzero"/></g></g></g></g></g></g></g></g><g clip-path="url(#0789ecb180)"><path fill="#ffffff" d="M 364.070312 335.5625 L 363.019531 338.144531 L 361.734375 340.578125 L 360.222656 342.835938 L 358.476562 344.898438 L 356.578125 346.707031 L 354.464844 348.292969 L 351.417969 350.023438 L 348.042969 351.308594 L 345.699219 351.878906 L 342.859375 352.324219 L 334.839844 353.003906 L 332.460938 353.164062 L 331.179688 353.320312 L 329.082031 353.539062 L 215.726562 353.992188 L 204.523438 354.191406 L 200.011719 354.25 L 193.746094 354.132812 L 188.007812 354.019531 L 75.910156 353.5625 L 70.96875 353.417969 L 65.828125 353.003906 L 61.816406 352.671875 L 56.1875 352.148438 L 52.46875 351.332031 L 50.011719 350.417969 L 47.722656 349.308594 L 45.613281 348 L 43.667969 346.488281 L 41.511719 344.351562 L 39.613281 341.917969 L 37.984375 339.183594 L 36.621094 336.136719 L 36.394531 335.824219 L 36.03125 335.664062 L 32.980469 335.289062 L 29.0625 334.761719 L 26.121094 334.019531 L 23.152344 332.839844 L 20.671875 331.410156 L 18.648438 329.878906 L 16.816406 328.207031 L 15.191406 326.402344 L 13.761719 324.464844 L 12.09375 321.527344 L 10.800781 318.328125 L 9.917969 314.867188 L 9.421875 311.140625 L 9.390625 310.757812 L 9.003906 303.546875 L 9.003906 58.257812 L 9.148438 56.03125 L 9.589844 53.695312 L 10.316406 51.253906 L 11.332031 48.714844 L 12.585938 46.332031 L 14.074219 44.253906 L 15.464844 42.742188 L 16.984375 41.40625 L 18.71875 40.167969 L 20.574219 39.089844 L 22.613281 38.121094 L 24.90625 37.246094 L 30.308594 35.730469 L 33.070312 35.382812 L 37.089844 35.398438 L 41.835938 35.386719 L 48.234375 35.140625 L 56.8125 35.207031 L 60.992188 35.261719 L 61.261719 35.183594 L 61.425781 34.949219 L 62.039062 33.273438 L 62.789062 31.679688 L 64.398438 29.152344 L 66.339844 26.933594 L 68.65625 24.976562 L 71.234375 23.367188 L 74.058594 22.121094 L 77.039062 21.273438 L 80.132812 20.832031 L 83.289062 20.820312 L 87.039062 21.28125 L 90.484375 22.171875 L 93.636719 23.480469 L 96.488281 25.199219 L 98.773438 27.089844 L 100.828125 29.320312 L 102.632812 31.890625 L 104.210938 34.78125 L 104.507812 35.117188 L 104.9375 35.238281 L 164.335938 35.238281 L 164.6875 35.125 L 164.910156 34.828125 L 165.925781 32.292969 L 167.175781 30.035156 L 168.652344 28.035156 L 170.367188 26.308594 L 172.210938 24.910156 L 174.894531 23.34375 L 177.617188 22.144531 L 180.375 21.304688 L 183.171875 20.824219 L 186.410156 20.722656 L 189.703125 21.097656 L 193.035156 21.9375 L 196.425781 23.246094 L 198.414062 24.261719 L 200.238281 25.421875 L 201.910156 26.730469 L 203.414062 28.195312 L 204.636719 29.632812 L 205.730469 31.199219 L 206.699219 32.894531 L 207.527344 34.703125 L 207.855469 35.09375 L 208.34375 35.246094 L 263.585938 35.246094 L 263.910156 35.140625 L 264.121094 34.859375 L 265.035156 32.527344 L 266.601562 29.800781 L 268.558594 27.398438 L 270.933594 25.277344 L 273.613281 23.535156 L 276.570312 22.183594 L 279.703125 21.265625 L 282.953125 20.808594 L 286.257812 20.824219 L 289.976562 21.335938 L 293.394531 22.265625 L 296.511719 23.601562 L 299.328125 25.34375 L 301.550781 27.207031 L 303.535156 29.378906 L 305.300781 31.867188 L 306.828125 34.660156 L 307.378906 35.277344 L 308.171875 35.496094 L 311.535156 35.382812 L 315.734375 35.304688 L 318.636719 35.644531 L 323.664062 36.957031 L 327.871094 38.601562 L 329.683594 39.550781 L 331.390625 40.640625 L 332.921875 41.824219 L 334.351562 43.15625 L 336.574219 45.871094 L 338.375 48.976562 L 338.886719 50.539062 L 339.324219 51.84375 L 339.621094 52.136719 L 340.023438 52.257812 L 343.082031 52.527344 L 346.160156 53.105469 L 349.261719 53.980469 L 352.371094 55.171875 L 354.992188 56.476562 L 357.347656 57.996094 L 359.414062 59.738281 L 361.203125 61.695312 L 362.292969 63.199219 L 363.246094 64.800781 L 364.070312 66.515625 L 364.746094 68.339844 L 365.300781 70.550781 L 365.691406 73.386719 L 365.925781 76.839844 L 365.992188 80.925781 L 365.960938 318.832031 L 365.792969 324.441406 L 365.402344 330.015625 L 364.863281 332.839844 Z M 364.070312 335.5625 " fill-opacity="1" fill-rule="nonzero"/><path fill="#1b1919" d="M 365.917969 76.839844 L 365.6875 73.386719 L 365.296875 70.550781 L 364.746094 68.339844 L 364.066406 66.515625 L 363.238281 64.808594 L 362.289062 63.199219 L 361.203125 61.695312 L 359.414062 59.738281 L 357.347656 57.996094 L 354.996094 56.476562 L 352.375 55.171875 L 349.265625 53.980469 L 346.164062 53.101562 L 343.082031 52.523438 L 340.023438 52.253906 L 339.621094 52.128906 L 339.328125 51.835938 L 338.890625 50.53125 L 338.378906 48.972656 L 336.578125 45.863281 L 334.355469 43.152344 L 332.925781 41.816406 L 331.394531 40.632812 L 329.691406 39.546875 L 327.878906 38.597656 L 323.675781 36.953125 L 318.648438 35.644531 L 315.746094 35.300781 L 311.550781 35.378906 L 308.183594 35.488281 L 307.394531 35.277344 L 306.84375 34.660156 L 305.316406 31.859375 L 303.550781 29.371094 L 301.5625 27.199219 L 299.339844 25.332031 L 296.527344 23.589844 L 293.410156 22.253906 L 289.992188 21.328125 L 286.273438 20.816406 L 282.96875 20.800781 L 279.714844 21.257812 L 276.582031 22.175781 L 273.621094 23.527344 L 270.941406 25.269531 L 268.566406 27.386719 L 266.609375 29.792969 L 265.042969 32.519531 L 264.132812 34.851562 L 263.921875 35.132812 L 263.59375 35.234375 L 208.355469 35.234375 L 207.863281 35.078125 L 207.539062 34.6875 L 206.710938 32.882812 L 205.738281 31.183594 L 204.644531 29.621094 L 203.417969 28.179688 L 201.914062 26.71875 L 200.242188 25.410156 L 198.421875 24.25 L 196.429688 23.234375 L 193.042969 21.921875 L 189.710938 21.085938 L 186.417969 20.707031 L 183.179688 20.808594 L 180.378906 21.289062 L 177.621094 22.128906 L 174.902344 23.324219 L 172.21875 24.890625 L 170.375 26.289062 L 168.664062 28.015625 L 167.1875 30.015625 L 165.941406 32.28125 L 164.925781 34.8125 L 164.699219 35.109375 L 164.347656 35.21875 L 104.949219 35.21875 L 104.515625 35.097656 L 104.21875 34.761719 L 102.640625 31.871094 L 100.835938 29.304688 L 98.78125 27.070312 L 96.492188 25.175781 L 93.636719 23.457031 L 90.484375 22.148438 L 87.039062 21.261719 L 83.289062 20.796875 L 80.128906 20.808594 L 77.035156 21.25 L 74.050781 22.097656 L 71.230469 23.34375 L 68.65625 24.953125 L 66.335938 26.910156 L 64.394531 29.128906 L 62.785156 31.65625 L 62.035156 33.246094 L 61.421875 34.921875 L 61.261719 35.15625 L 60.992188 35.234375 L 56.8125 35.179688 L 48.234375 35.113281 L 41.835938 35.359375 L 37.089844 35.367188 L 33.070312 35.355469 L 30.308594 35.703125 L 24.90625 37.214844 L 22.613281 38.09375 L 20.574219 39.0625 L 18.71875 40.144531 L 16.984375 41.382812 L 15.464844 42.71875 L 14.074219 44.230469 L 12.585938 46.308594 L 11.332031 48.6875 L 10.316406 51.230469 L 9.589844 53.667969 L 9.152344 56.003906 L 9.007812 58.234375 L 9.007812 303.523438 L 9.390625 310.734375 L 9.421875 311.117188 L 9.917969 314.84375 L 10.800781 318.304688 L 12.085938 321.503906 L 13.761719 324.441406 L 15.191406 326.375 L 16.8125 328.183594 L 18.644531 329.855469 L 20.664062 331.386719 L 23.152344 332.816406 L 26.121094 333.992188 L 29.0625 334.738281 L 32.980469 335.265625 L 36.03125 335.640625 L 36.390625 335.800781 L 36.613281 336.113281 L 37.980469 339.160156 L 39.609375 341.894531 L 41.507812 344.328125 L 43.664062 346.464844 L 45.605469 347.972656 L 47.71875 349.28125 L 50.003906 350.390625 L 52.464844 351.304688 L 56.183594 352.121094 L 61.8125 352.644531 L 65.824219 352.972656 L 70.964844 353.386719 L 75.902344 353.53125 L 188 353.988281 L 193.742188 354.097656 L 200.007812 354.21875 L 204.519531 354.164062 L 215.71875 353.964844 L 329.082031 353.507812 L 331.179688 353.292969 L 332.460938 353.136719 L 334.839844 352.976562 L 342.859375 352.296875 L 345.699219 351.847656 L 348.042969 351.28125 L 351.425781 349.996094 L 354.472656 348.265625 L 356.582031 346.679688 L 358.484375 344.871094 L 360.226562 342.804688 L 361.734375 340.550781 L 363.019531 338.117188 L 364.070312 335.535156 L 364.863281 332.816406 L 365.40625 329.992188 L 365.796875 324.417969 L 365.964844 318.808594 L 366 80.902344 L 365.929688 76.816406 Z M 309.257812 39.761719 L 309.265625 39.761719 L 311.78125 39.691406 L 314.25 39.804688 L 316.6875 40.09375 L 319.078125 40.558594 L 321.347656 41.171875 L 323.578125 41.945312 L 325.769531 42.886719 L 327.925781 44 L 329.972656 45.375 L 331.691406 47.039062 L 333.265625 49.308594 L 334.40625 51.953125 L 334.386719 52.164062 L 334.207031 52.285156 L 312.238281 52.285156 L 311.917969 52.171875 L 311.742188 51.875 L 309.117188 39.9375 L 309.242188 39.761719 Z M 309.257812 82.355469 L 310.304688 79.050781 L 310.429688 78.90625 L 310.613281 78.945312 L 310.660156 79.011719 L 311.597656 81.65625 L 311.949219 84.347656 L 311.726562 86.992188 L 310.925781 89.507812 L 310.207031 90.871094 L 309.292969 92.152344 L 308.246094 93.28125 L 307.03125 94.304688 L 305.703125 95.167969 L 304.316406 95.847656 L 302.832031 96.351562 L 301.3125 96.644531 L 298.675781 96.675781 L 296.074219 96.128906 L 293.605469 95.019531 L 291.339844 93.355469 L 291.296875 93.289062 L 291.308594 93.097656 L 291.476562 93.019531 L 294.953125 92.976562 L 298.101562 92.484375 L 300.929688 91.523438 L 303.433594 90.109375 L 303.746094 89.886719 L 304.039062 89.652344 L 306.125 87.664062 L 307.859375 85.230469 L 309.242188 82.359375 Z M 269.09375 34.605469 L 270.363281 32.628906 L 271.785156 30.902344 L 273.359375 29.40625 L 275.089844 28.15625 L 277.121094 27.09375 L 279.328125 26.304688 L 281.710938 25.789062 L 284.269531 25.566406 L 286.90625 25.65625 L 289.542969 26.070312 L 292.035156 26.789062 L 294.410156 27.816406 L 296.523438 29.078125 L 298.417969 30.609375 L 299.984375 32.308594 L 301.269531 34.25 L 303.054688 37.878906 L 304.519531 41.722656 L 305.65625 45.785156 L 306.460938 50.0625 L 307.230469 56.90625 L 307.523438 63.558594 L 307.3125 69.53125 L 306.621094 74.679688 L 306.09375 76.988281 L 305.46875 79.03125 L 304.71875 80.882812 L 303.832031 82.585938 L 302.875 84.003906 L 301.765625 85.253906 L 300.582031 86.269531 L 299.242188 87.097656 L 297.523438 87.789062 L 295.605469 88.1875 L 293.550781 88.257812 L 291.296875 88.011719 L 289.664062 87.601562 L 288.578125 87.066406 L 287.875 86.242188 L 287.609375 85.203125 L 287.808594 82.566406 L 288.523438 80.144531 L 289.160156 78.859375 L 289.96875 77.640625 L 291.160156 75.886719 L 292.101562 74.109375 L 293.117188 71.351562 L 293.742188 68.328125 L 294.035156 64.921875 L 294.082031 60.019531 L 294.082031 57.867188 L 293.921875 54.558594 L 293.433594 51.199219 L 292.609375 47.894531 L 291.515625 44.835938 L 290.140625 41.988281 L 288.550781 39.476562 L 286.675781 37.207031 L 284.644531 35.332031 L 282.925781 34.316406 L 282.097656 34.101562 L 281.28125 34.078125 L 280.355469 34.300781 L 279.449219 34.792969 L 278.792969 35.101562 L 278.078125 35.214844 L 269.453125 35.214844 L 269.125 35.054688 L 269.054688 34.699219 L 269.097656 34.601562 Z M 209.988281 39.863281 L 210.246094 39.753906 L 282.007812 39.753906 L 282.839844 39.945312 L 283.5 40.480469 L 284.75 42.207031 L 285.851562 44.015625 L 286.792969 45.878906 L 287.59375 47.820312 L 288.761719 51.945312 L 288.761719 51.96875 L 288.527344 52.222656 L 212.980469 52.222656 L 212.644531 52.101562 L 212.453125 51.800781 L 209.90625 40.171875 L 209.894531 40.128906 L 209.984375 39.863281 Z M 208.648438 85.25 L 210.046875 82.390625 L 211.09375 79.070312 L 211.21875 78.9375 L 211.402344 78.980469 L 211.457031 79.042969 L 212.375 81.699219 L 212.722656 84.386719 L 212.492188 87.023438 L 211.683594 89.539062 L 210.957031 90.90625 L 210.046875 92.1875 L 208.996094 93.304688 L 207.769531 94.328125 L 206.445312 95.191406 L 205.058594 95.851562 L 203.5625 96.355469 L 202.046875 96.644531 L 199.40625 96.675781 L 196.808594 96.117188 L 194.347656 94.992188 L 192.082031 93.328125 L 192.035156 93.261719 L 192.058594 93.070312 L 192.226562 92.992188 L 195.699219 92.960938 L 198.847656 92.46875 L 201.6875 91.519531 L 204.1875 90.113281 L 204.5 89.890625 L 204.804688 89.667969 L 206.890625 87.679688 L 208.632812 85.25 Z M 169.898438 34.570312 L 171.179688 32.597656 L 172.601562 30.867188 L 174.175781 29.382812 L 175.90625 28.132812 L 177.9375 27.0625 L 180.144531 26.28125 L 182.527344 25.777344 L 185.085938 25.554688 L 187.722656 25.640625 L 190.359375 26.066406 L 192.851562 26.78125 L 195.226562 27.8125 L 197.328125 29.074219 L 199.226562 30.601562 L 200.792969 32.3125 L 202.074219 34.253906 L 203.859375 37.882812 L 205.3125 41.726562 L 206.449219 45.789062 L 207.25 50.066406 L 208.019531 56.910156 L 208.296875 63.5625 L 208.082031 69.527344 L 207.390625 74.683594 L 206.863281 76.984375 L 206.230469 79.027344 L 205.484375 80.878906 L 204.589844 82.574219 L 203.621094 83.996094 L 202.515625 85.25 L 201.324219 86.265625 L 199.996094 87.089844 L 198.277344 87.78125 L 196.347656 88.171875 L 194.300781 88.242188 L 192.046875 87.992188 L 190.414062 87.589844 L 189.328125 87.050781 L 188.625 86.226562 L 188.359375 85.1875 L 188.5625 82.550781 L 189.277344 80.128906 L 189.917969 78.84375 L 190.722656 77.628906 L 191.921875 75.871094 L 192.855469 74.097656 L 193.871094 71.347656 L 194.507812 68.324219 L 194.800781 64.929688 L 194.863281 60.011719 L 194.863281 57.859375 L 194.707031 54.558594 L 194.21875 51.195312 L 193.402344 47.890625 L 192.316406 44.839844 L 190.941406 41.984375 L 189.351562 39.472656 L 187.488281 37.203125 L 185.457031 35.328125 L 183.738281 34.3125 L 182.910156 34.085938 L 182.09375 34.074219 L 181.167969 34.289062 L 180.261719 34.777344 L 179.605469 35.089844 L 178.886719 35.199219 L 170.261719 35.191406 L 169.9375 35.035156 L 169.867188 34.675781 L 169.910156 34.578125 Z M 106.183594 39.882812 L 106.464844 39.746094 L 182.785156 39.746094 L 183.566406 39.925781 L 184.203125 40.429688 L 185.511719 42.195312 L 186.65625 44.058594 L 187.582031 45.878906 L 188.355469 47.789062 L 189.496094 51.832031 L 189.441406 52.078125 L 189.226562 52.207031 L 109.402344 52.207031 L 108.980469 52.046875 L 108.765625 51.65625 L 108.695312 51.175781 L 107.511719 44.21875 L 106.878906 41.988281 L 106.140625 40.261719 L 106.109375 40.179688 L 106.175781 39.878906 Z M 106.25 83.167969 L 107.109375 80.398438 L 107.199219 80.21875 L 107.578125 80.09375 L 107.871094 80.359375 L 108.414062 82.480469 L 108.582031 84.59375 L 108.382812 86.726562 L 107.824219 88.757812 L 106.597656 91.179688 L 104.847656 93.28125 L 102.6875 94.945312 L 100.117188 96.152344 L 98.015625 96.652344 L 95.359375 96.695312 L 92.632812 96.089844 L 90.019531 94.894531 L 87.496094 93.105469 L 87.429688 93.007812 L 87.472656 92.773438 L 87.6875 92.695312 L 90.636719 93.007812 L 93.402344 92.917969 L 95.96875 92.425781 L 98.347656 91.53125 L 100.144531 90.515625 L 101.808594 89.21875 L 103.339844 87.667969 L 104.757812 85.847656 L 106.253906 83.175781 Z M 66.363281 34.828125 L 67.828125 32.429688 L 69.59375 30.386719 L 71.351562 28.894531 L 73.285156 27.675781 L 75.4375 26.695312 L 77.722656 26.015625 L 80.105469 25.613281 L 82.558594 25.515625 L 85.054688 25.714844 L 87.542969 26.210938 L 90.835938 27.375 L 92.363281 28.175781 L 93.761719 29.089844 L 95.265625 30.304688 L 96.609375 31.667969 L 97.863281 33.234375 L 98.964844 34.933594 L 99.972656 36.824219 L 100.898438 38.988281 L 102.429688 43.832031 L 103.765625 50.199219 L 104.535156 56.425781 L 104.78125 62.726562 L 104.515625 69.121094 L 103.734375 75.597656 L 102.964844 78.546875 L 101.515625 81.953125 L 100.796875 83.222656 L 99.957031 84.359375 L 98.960938 85.398438 L 97.867188 86.285156 L 96.425781 87.140625 L 94.894531 87.765625 L 93.277344 88.15625 L 91.613281 88.308594 L 89.925781 88.242188 L 88.230469 87.929688 L 86.558594 87.382812 L 84.941406 86.601562 L 84.351562 86 L 84.140625 85.195312 L 84.371094 82.703125 L 84.964844 80.398438 L 85.765625 78.769531 L 87.171875 76.851562 L 88.398438 75.210938 L 89.136719 73.871094 L 90.550781 69.972656 L 90.941406 68.308594 L 91.132812 66.839844 L 91.402344 61.332031 L 91.378906 57.128906 L 91.054688 53.355469 L 90.394531 49.804688 L 89.542969 46.878906 L 88.449219 44.023438 L 87.546875 42.179688 L 86.425781 40.324219 L 85.152344 38.550781 L 83.824219 37.019531 L 82.503906 35.789062 L 81.25 34.894531 L 80.019531 34.277344 L 78.773438 33.957031 L 78.25 34.046875 L 76.015625 35.183594 L 75.621094 35.28125 L 66.644531 35.28125 L 66.574219 35.269531 L 66.363281 35.101562 L 66.375 34.832031 Z M 37.082031 65.355469 L 35.664062 68.660156 L 34.816406 71.84375 L 34.527344 74.902344 L 34.527344 320.160156 L 34.671875 324.78125 L 35.105469 330.457031 L 34.984375 330.800781 L 34.640625 330.9375 L 34.574219 330.925781 L 29.691406 330.144531 L 27.601562 329.597656 L 25.058594 328.527344 L 23.003906 327.332031 L 21.050781 325.746094 L 19.542969 324.214844 L 18.222656 322.582031 L 17.082031 320.875 L 16.121094 319.085938 L 15.265625 316.984375 L 14.648438 314.773438 L 14.25 312.453125 L 14.082031 310.03125 L 13.921875 307.65625 L 13.789062 305.503906 L 13.789062 58.257812 L 13.996094 55.585938 L 14.546875 53.078125 L 15.441406 50.75 L 16.664062 48.617188 L 18.304688 46.605469 L 20.292969 44.847656 L 22.546875 43.410156 L 25.113281 42.25 L 29.015625 40.953125 L 32.523438 40.164062 L 35.550781 39.8125 L 38.917969 39.734375 L 78.921875 39.742188 L 80.140625 40.03125 L 81.09375 40.855469 L 82.878906 43.601562 L 84.296875 46.367188 L 85.351562 49.140625 L 86.046875 51.941406 L 86.054688 51.996094 L 85.929688 52.285156 L 85.632812 52.382812 L 84.191406 52.230469 L 62.8125 52.296875 L 60.355469 52.234375 L 58.019531 52.367188 L 55.804688 52.691406 L 53.71875 53.210938 L 48.410156 55.050781 L 46.316406 55.988281 L 44.453125 56.984375 L 42.765625 58.09375 L 41.34375 59.261719 L 40.113281 60.535156 L 39.042969 61.957031 L 37.066406 65.371094 Z M 361.21875 320.988281 L 361.007812 325.144531 L 360.828125 328.285156 L 360.644531 330.164062 L 360.1875 332.160156 L 359.476562 334.28125 L 358.5 336.515625 L 357.351562 338.617188 L 356.03125 340.503906 L 354.546875 342.167969 L 352.890625 343.621094 L 350.460938 345.195312 L 347.742188 346.394531 L 344.738281 347.222656 L 341.433594 347.671875 L 333.304688 348.339844 L 329.386719 348.628906 L 325.140625 348.742188 L 320.429688 348.785156 L 251.472656 349.230469 L 200.203125 349.355469 L 148.941406 349.230469 L 79.984375 348.785156 L 75.273438 348.742188 L 71.027344 348.628906 L 67.109375 348.339844 L 58.980469 347.671875 L 55.675781 347.222656 L 52.671875 346.394531 L 49.945312 345.195312 L 47.511719 343.621094 L 45.867188 342.167969 L 44.382812 340.503906 L 43.0625 338.617188 L 41.914062 336.515625 L 40.9375 334.28125 L 40.226562 332.160156 L 39.769531 330.164062 L 39.585938 328.285156 L 39.40625 325.144531 L 39.195312 320.988281 L 39.183594 123.84375 L 39.269531 123.628906 L 39.484375 123.539062 L 200.203125 123.75 L 360.933594 123.539062 L 361.148438 123.628906 L 361.238281 123.84375 L 361.222656 320.988281 Z M 361.046875 118.914062 L 39.621094 118.914062 L 39.308594 118.789062 L 39.183594 118.476562 L 39.214844 80.074219 L 39.3125 76.320312 L 39.570312 73.15625 L 40 70.574219 L 40.601562 68.589844 L 41.351562 67 L 42.832031 64.789062 L 44.75 62.777344 L 47.015625 61.066406 L 49.675781 59.601562 L 52.664062 58.433594 L 55.949219 57.5625 L 59.492188 57.011719 L 63.136719 56.8125 L 86.253906 56.769531 L 86.722656 56.972656 L 86.898438 57.4375 L 86.617188 62.953125 L 86.003906 68.675781 L 85.867188 69.417969 L 85.175781 71.289062 L 84.007812 73.039062 L 82.257812 75.4375 L 80.90625 77.980469 L 80.019531 80.550781 L 79.566406 83.21875 L 79.523438 85.0625 L 79.699219 86.960938 L 80.066406 88.757812 L 80.605469 90.453125 L 81.320312 92.117188 L 82.203125 93.648438 L 84.066406 96.03125 L 86.277344 98.015625 L 88.851562 99.613281 L 91.65625 100.730469 L 94.59375 101.355469 L 97.609375 101.457031 L 100.523438 101.035156 L 103.351562 100.0625 L 105.078125 99.160156 L 106.71875 98.019531 L 108.207031 96.699219 L 109.578125 95.160156 L 111.167969 92.792969 L 112.320312 90.277344 L 113.078125 87.351562 L 113.328125 84.246094 L 113.203125 82.394531 L 112.726562 80.074219 L 111.894531 77.796875 L 110.699219 75.5625 L 109.148438 73.382812 L 108.9375 72.65625 L 109.292969 68.875 L 109.46875 65.042969 L 109.480469 61.179688 L 109.324219 57.261719 L 109.445312 56.925781 L 109.78125 56.769531 L 190.039062 56.769531 L 190.332031 56.90625 L 190.433594 57.21875 L 189.605469 69.007812 L 189.191406 70.917969 L 188.417969 72.429688 L 186.945312 74.628906 L 185.570312 76.859375 L 184.578125 79.152344 L 183.929688 81.574219 L 183.664062 84.003906 L 183.832031 86.972656 L 184.519531 89.832031 L 185.742188 92.582031 L 187.4375 95.09375 L 189.515625 97.226562 L 191.976562 99.003906 L 194.757812 100.339844 L 197.675781 101.15625 L 199.371094 101.386719 L 201.671875 101.421875 L 203.925781 101.132812 L 206.191406 100.515625 L 208.335938 99.597656 L 210.324219 98.390625 L 212.136719 96.914062 L 213.679688 95.25 L 214.988281 93.363281 L 216.386719 90.496094 L 217.214844 87.523438 L 217.429688 85.789062 L 217.472656 84.023438 L 217.113281 80.945312 L 216.21875 78.089844 L 215.378906 76.402344 L 214.332031 74.804688 L 212.699219 72.605469 L 212.523438 71.902344 L 212.960938 64.378906 L 212.949219 60.761719 L 212.769531 57.246094 L 212.882812 56.921875 L 213.195312 56.777344 L 288.832031 56.777344 L 288.957031 56.789062 L 289.339844 57.011719 L 289.492188 57.4375 L 289.308594 63.074219 L 288.855469 68.855469 L 288.445312 70.773438 L 287.671875 72.4375 L 286.230469 74.570312 L 285.765625 75.210938 L 284.511719 77.3125 L 283.460938 80.035156 L 282.941406 82.859375 L 282.929688 85.816406 L 283.445312 88.730469 L 284.449219 91.554688 L 285.925781 94.15625 L 287.792969 96.421875 L 290.058594 98.339844 L 291.492188 99.246094 L 294.167969 100.449219 L 296.96875 101.167969 L 299.894531 101.40625 L 302.808594 101.160156 L 305.621094 100.441406 L 308.277344 99.246094 L 310.621094 97.644531 L 312.667969 95.625 L 314.050781 93.722656 L 315.164062 91.558594 L 315.988281 89.265625 L 316.511719 87 L 316.722656 84.769531 L 316.625 82.589844 L 316.101562 80.054688 L 315.152344 77.566406 L 313.777344 75.132812 L 311.96875 72.75 L 311.769531 72.390625 L 311.726562 71.976562 L 312.183594 64.4375 L 312.171875 60.824219 L 311.996094 57.304688 L 312.121094 56.9375 L 312.472656 56.78125 L 335.078125 56.78125 L 340.441406 56.988281 L 342.898438 57.3125 L 345.277344 57.777344 L 347.46875 58.382812 L 349.589844 59.152344 L 351.574219 60.046875 L 353.484375 61.117188 L 356.175781 63.019531 L 357.117188 63.929688 L 357.980469 65.050781 L 359.53125 67.953125 L 360.707031 71.515625 L 361.039062 73.242188 L 361.164062 74.730469 L 361.226562 118.742188 L 361.035156 118.941406 Z M 361.046875 118.914062 " fill-opacity="1" fill-rule="nonzero"/></g><path stroke-linecap="butt" transform="matrix(-0.00577471, 0.749978, -0.749978, -0.00577471, 249.129569, 163.911361)" fill="none" stroke-linejoin="miter" d="M 0.000441049 5.001029 L 87.71135 4.997563 " stroke="#000000" stroke-width="10" stroke-opacity="1" stroke-miterlimit="4"/><g clip-path="url(#33a2496dba)"><g clip-path="url(#9b3f031209)"><g clip-path="url(#eb88dc6afc)"><g clip-path="url(#01b5604ca8)"><path fill="#000000" d="M 196.257812 285.351562 C 196 283.726562 204.851562 274.246094 213.832031 266.519531 L 216.96875 263.820312 L 216.449219 260.027344 C 215.460938 252.816406 215.804688 246.378906 217.46875 241.050781 C 218.371094 238.15625 220.242188 234.820312 220.75 235.191406 C 220.871094 235.277344 221.328125 237.636719 221.765625 240.429688 C 222.492188 245.066406 224.800781 251.417969 225.441406 250.539062 C 225.585938 250.339844 225.394531 249.039062 225.015625 247.65625 C 224.03125 244.035156 224.390625 239.617188 226.117188 234.113281 C 227.445312 229.882812 228.101562 228.601562 231.566406 223.449219 C 235.582031 217.480469 237.832031 215.035156 241.59375 212.566406 C 243.621094 211.230469 244.417969 211.28125 243.933594 212.710938 C 242.570312 216.710938 241.660156 221.296875 241.472656 225.070312 C 241.351562 227.539062 241.332031 229.617188 241.429688 229.6875 C 241.527344 229.757812 242.289062 227.542969 243.128906 224.769531 C 246.621094 213.21875 250.359375 206.90625 256.332031 202.476562 C 261.363281 198.742188 265.132812 196.703125 271.347656 194.347656 C 282.679688 190.058594 297.941406 186.726562 298.21875 188.480469 C 298.308594 189.039062 291.835938 200.042969 289.542969 203.234375 C 288.425781 204.792969 287.742188 206.121094 287.972656 206.289062 C 288.214844 206.464844 289.5 205.035156 291.152344 202.761719 C 295.648438 196.558594 302.832031 190.421875 308.550781 187.890625 C 311.441406 186.613281 321.601562 185.210938 328.558594 185.132812 C 335.097656 185.058594 342.601562 186.238281 347.703125 188.148438 C 354.71875 190.769531 356.574219 193.253906 355.523438 198.609375 C 354.972656 201.433594 354.527344 202.285156 350.785156 207.738281 C 346.535156 213.929688 340.894531 220.265625 336.199219 224.132812 C 332.074219 227.527344 327.089844 228.589844 316.515625 228.320312 C 313.558594 228.246094 311.160156 228.324219 311.1875 228.496094 C 311.214844 228.664062 314.441406 229.71875 318.359375 230.835938 C 322.277344 231.957031 325.71875 233.042969 326.003906 233.25 C 326.8125 233.835938 326.039062 234.578125 320.195312 238.847656 C 308.238281 247.578125 295.207031 254.691406 288.84375 255.957031 C 284.71875 256.777344 281.199219 256.472656 272.246094 254.515625 C 269.445312 253.902344 266.683594 253.476562 266.105469 253.566406 C 265.175781 253.707031 265.335938 253.875 267.53125 255.023438 C 271.195312 256.9375 278.519531 262.359375 278.316406 263.007812 C 278.078125 263.773438 268.996094 266.464844 262.398438 267.722656 C 255.953125 268.949219 249.597656 268.867188 244.277344 267.488281 C 242.230469 266.960938 240.457031 266.660156 240.339844 266.824219 C 240.078125 267.183594 241.523438 268.703125 245.191406 271.917969 C 247.324219 273.792969 247.769531 274.382812 247.164062 274.539062 C 245.449219 274.980469 234.707031 272.667969 228.355469 270.496094 C 218.234375 267.035156 220.148438 266.515625 211.230469 275.140625 C 202.363281 283.710938 200.386719 285.4375 198.65625 286.105469 C 197.417969 286.585938 196.402344 286.265625 196.257812 285.351562 Z M 219.234375 266.800781 C 219.863281 265.933594 234.046875 254.019531 237.710938 251.277344 C 250.226562 241.921875 273.074219 227.460938 285.722656 220.894531 C 289.808594 218.769531 294.894531 215.957031 297.023438 214.640625 C 299.15625 213.324219 301.695312 211.773438 302.667969 211.199219 C 303.640625 210.625 304.363281 210.101562 304.269531 210.03125 C 303.933594 209.789062 299.355469 212.011719 286.988281 218.4375 C 269.234375 227.65625 257.421875 234.632812 247.1875 241.9375 C 237.777344 248.652344 226.367188 257.847656 224.757812 260.011719 C 224.222656 260.726562 222.59375 262.472656 221.128906 263.886719 C 219.667969 265.304688 218.621094 266.574219 218.800781 266.703125 C 218.980469 266.835938 219.179688 266.878906 219.234375 266.800781 Z M 219.234375 266.800781 " fill-opacity="1" fill-rule="nonzero"/></g></g></g></g><path stroke-linecap="butt" transform="matrix(0, 0.75, -0.75, 0, 104.567628, 163.883413)" fill="none" stroke-linejoin="miter" d="M -0.000800984 5.001629 L 164.040876 5.001629 " stroke="#000000" stroke-width="10" stroke-opacity="1" stroke-miterlimit="4"/><path stroke-linecap="butt" transform="matrix(0, 0.75, -0.75, 0, 153.018906, 163.883413)" fill="none" stroke-linejoin="miter" d="M -0.000800984 4.999167 L 164.040876 4.999167 " stroke="#000000" stroke-width="10" stroke-opacity="1" stroke-miterlimit="4"/><path stroke-linecap="butt" transform="matrix(0, 0.75, -0.75, 0, 201.470163, 163.883413)" fill="none" stroke-linejoin="miter" d="M -0.000800984 5.001885 L 164.040876 5.001885 " stroke="#000000" stroke-width="10" stroke-opacity="1" stroke-miterlimit="4"/><g clip-path="url(#db3c650713)"><g clip-path="url(#1ae225c1f7)"><g transform="matrix(1, 0, 0, 1, 35, 229)"><g clip-path="url(#5049712fa3)"><g clip-path="url(#f84883f6b0)"><g clip-path="url(#083c2fec3d)"><rect x="-117.5" width="540" fill="#ffffff" height="539.999987" y="-311.499998" fill-opacity="1"/></g></g></g></g></g></g><path stroke-linecap="butt" transform="matrix(0.000000001309, 0.75, -0.75, 0.000000001309, 249.129744, 264.911673)" fill="none" stroke-linejoin="miter" d="M -0.00202235 5.001118 L 29.336521 5.001118 " stroke="#000000" stroke-width="10" stroke-opacity="1" stroke-miterlimit="4"/><path stroke-linecap="butt" transform="matrix(0.75, 0.00000000000000064, -0.00000000000000064, 0.75, 66.14442, 191.332823)" fill="none" stroke-linejoin="miter" d="M 0.000148125 4.998944 L 266.260582 4.998944 " stroke="#000000" stroke-width="10" stroke-opacity="1" stroke-miterlimit="4"/><path stroke-linecap="butt" transform="matrix(0.75, 0.000000000000000179, -0.000000000000000179, 0.75, 66.14442, 233.67555)" fill="none" stroke-linejoin="miter" d="M 0.000148125 5.000308 L 238.307455 5.000308 " stroke="#000000" stroke-width="10" stroke-opacity="1" stroke-miterlimit="4"/></svg>