<svg xmlns="http://www.w3.org/2000/svg" xmlns:xlink="http://www.w3.org/1999/xlink" width="500" zoomAndPan="magnify" viewBox="0 0 375 374.999991" height="500" preserveAspectRatio="xMidYMid meet" version="1.0"><defs><clipPath id="0f3184f9a8"><path d="M 200 173 L 216 173 L 216 191 L 200 191 Z M 200 173 " clip-rule="nonzero"/></clipPath><clipPath id="7f8615e93a"><path d="M 199.992188 173.117188 L 215.492188 172.941406 L 215.695312 190.785156 L 200.195312 190.964844 Z M 199.992188 173.117188 " clip-rule="nonzero"/></clipPath><clipPath id="dbd4d5d141"><path d="M 206.324219 183.089844 C 209.949219 178.847656 210.253906 179.367188 210.253906 179.367188 C 210.253906 179.367188 209.726562 178.847656 209.648438 178.847656 C 209.574219 178.925781 210.105469 179.371094 209.960938 179.671875 C 209.746094 180.574219 205.582031 183.773438 204.828125 183.628906 C 204.605469 183.632812 204.375 183.261719 204.445312 182.960938 C 204.734375 181.90625 212.625 176.566406 213.675781 176.777344 C 213.902344 176.851562 214.128906 177.148438 214.058594 177.449219 C 213.847656 178.652344 206.035156 184.066406 204.324219 185.285156 C 203.730469 185.742188 203.207031 186.199219 203.058594 186.125 C 202.90625 186.050781 202.828125 185.601562 202.972656 185.300781 C 203.488281 184.46875 208.933594 181.933594 209.011719 182.007812 C 209.085938 182.15625 202.546875 187.480469 201.722656 187.265625 C 201.421875 187.195312 201.339844 186.894531 201.339844 186.59375 C 201.40625 186.144531 202.675781 185.378906 203.492188 184.695312 C 204.605469 183.78125 206.90625 181.582031 207.582031 181.574219 C 207.804688 181.570312 208.109375 181.867188 208.113281 182.09375 C 208.042969 182.769531 203.878906 185.890625 203.128906 185.824219 C 202.828125 185.753906 202.601562 185.53125 202.671875 185.230469 C 202.808594 184.101562 210.386719 177.867188 211.511719 177.851562 C 211.8125 177.925781 212.039062 178.070312 212.042969 178.371094 C 212.054688 179.273438 206.195312 185.039062 205.292969 184.976562 C 205.070312 184.976562 204.839844 184.679688 204.839844 184.378906 C 204.902344 183.554688 210.332031 179.589844 210.257812 179.515625 C 210.183594 179.441406 204.613281 184.53125 203.195312 185.074219 C 202.671875 185.230469 202.074219 185.238281 201.996094 185.085938 C 201.917969 184.9375 202.589844 184.40625 203.257812 183.796875 C 205.039062 182.351562 213.292969 175.957031 214.195312 176.398438 C 214.421875 176.542969 214.429688 177.144531 214.210938 177.746094 C 213.554688 179.40625 207.40625 185.851562 206.503906 185.710938 C 206.277344 185.636719 206.121094 185.191406 206.117188 184.890625 C 206.257812 184.0625 208.78125 181.710938 209.449219 181.101562 C 209.746094 180.875 210.046875 180.644531 210.121094 180.71875 C 210.273438 180.792969 210.425781 181.089844 210.277344 181.390625 C 209.917969 182.671875 202.203125 190.1875 201.152344 190.046875 C 200.929688 190.050781 200.773438 189.753906 200.769531 189.453125 C 200.980469 188.25 207.15625 183.902344 209.460938 182.152344 C 210.949219 181.085938 212.582031 179.566406 213.183594 179.707031 C 213.484375 179.707031 213.636719 180.003906 213.640625 180.304688 C 213.503906 181.355469 205.023438 187.601562 204.949219 187.605469 C 204.949219 187.527344 211.769531 180.398438 213.042969 180.3125 C 213.339844 180.308594 213.71875 180.527344 213.722656 180.753906 C 213.730469 181.503906 208.285156 184.265625 206.058594 186.015625 C 204.050781 187.613281 201.6875 190.792969 200.789062 190.878906 C 200.5625 190.953125 200.261719 190.808594 200.257812 190.582031 C 200.097656 189.609375 211.863281 182.199219 212.070312 180.472656 C 212.136719 180.019531 211.757812 179.5 211.382812 179.503906 C 210.480469 179.363281 206.636719 184.285156 205.738281 184.292969 C 205.4375 184.296875 205.210938 184.074219 205.207031 183.851562 C 205.117188 182.726562 213.792969 174 214.921875 174.0625 C 215.21875 174.058594 215.449219 174.359375 215.449219 174.582031 C 215.316406 175.859375 203.332031 184.023438 203.332031 184.023438 C 203.335938 184.097656 213.507812 175.203125 214.710938 175.339844 C 215.011719 175.414062 215.238281 175.636719 215.167969 175.9375 C 215.03125 177.210938 204.84375 184.753906 203.269531 184.847656 C 202.96875 184.851562 202.664062 184.40625 202.589844 184.40625 C 202.589844 184.480469 203.121094 185 203.046875 185 C 203.046875 185.074219 202.59375 184.78125 202.515625 184.632812 C 202.511719 184.40625 202.886719 184.253906 203.257812 183.875 C 204.519531 182.734375 211.125 176.730469 212.253906 176.871094 C 212.476562 176.867188 212.707031 177.164062 212.710938 177.464844 C 212.570312 178.515625 205.277344 183.550781 203.71875 184.769531 C 203.121094 185.226562 202.828125 185.601562 202.527344 185.605469 C 202.375 185.535156 202.074219 185.3125 202.144531 185.085938 C 202.207031 184.035156 209.558594 177.425781 210.609375 177.488281 C 210.910156 177.484375 211.136719 177.78125 211.140625 178.007812 C 211.074219 178.90625 206.324219 183.089844 205.199219 183.324219 C 204.902344 183.402344 204.523438 183.257812 204.449219 183.109375 C 204.371094 182.960938 204.59375 182.734375 204.816406 182.355469 C 205.773438 180.917969 212.957031 172.960938 214.082031 173.023438 C 214.308594 173.019531 214.535156 173.242188 214.539062 173.542969 C 214.40625 174.96875 202.753906 185.902344 201.183594 186.070312 C 200.882812 186.074219 200.582031 185.929688 200.578125 185.703125 C 200.570312 185.105469 205.625 181.222656 206.453125 181.285156 C 206.679688 181.359375 206.90625 181.65625 206.835938 181.882812 C 206.691406 182.632812 202.820312 185.003906 201.769531 185.089844 C 201.398438 185.167969 200.871094 185.027344 200.867188 184.726562 C 200.628906 183.601562 211.914062 173.421875 213.265625 173.558594 C 213.5625 173.554688 213.792969 173.925781 213.722656 174.300781 C 213.65625 175.128906 210.546875 178.539062 209.871094 178.546875 C 209.644531 178.550781 209.414062 178.027344 209.414062 177.953125 C 209.414062 177.953125 210.019531 178.394531 210.019531 178.394531 C 210.019531 178.394531 209.417969 178.253906 209.414062 178.027344 C 209.332031 177.429688 212.148438 174.246094 212.746094 174.164062 C 212.972656 174.160156 213.273438 174.308594 213.277344 174.53125 C 213.289062 175.65625 203.265625 184.699219 201.621094 185.015625 C 201.246094 185.097656 200.867188 184.875 200.867188 184.726562 C 200.785156 184.203125 204.953125 181.453125 205.929688 181.441406 C 206.378906 181.4375 206.757812 181.65625 206.835938 181.957031 C 206.84375 182.707031 201.933594 186.214844 201.109375 186.148438 C 200.882812 186.074219 200.65625 185.851562 200.652344 185.554688 C 200.785156 184.050781 212.730469 172.886719 214.082031 173.023438 C 214.308594 173.019531 214.535156 173.242188 214.539062 173.542969 C 214.402344 174.746094 204.667969 182.730469 204.742188 182.730469 C 204.746094 182.804688 209.785156 177.421875 210.609375 177.488281 C 210.910156 177.484375 211.136719 177.78125 211.140625 178.007812 C 211.078125 179.132812 203.949219 185.367188 202.675781 185.53125 C 202.375 185.535156 202.074219 185.386719 202.070312 185.160156 C 201.988281 184.335938 208.902344 179.082031 210.761719 177.785156 C 211.582031 177.253906 212.550781 176.714844 212.625 176.789062 C 212.777344 176.9375 212.335938 177.695312 211.820312 178.300781 C 210.484375 179.816406 204.171875 185.136719 203.046875 185 C 202.820312 185.003906 202.589844 184.707031 202.589844 184.40625 C 202.726562 183.503906 206.824219 180.90625 208.90625 179.382812 C 210.6875 177.9375 213.214844 175.660156 214.261719 175.496094 C 214.636719 175.492188 215.164062 175.710938 215.167969 175.9375 C 215.253906 176.910156 203.488281 184.246094 203.332031 184.023438 C 203.179688 183.800781 213.941406 173.773438 214.921875 174.0625 C 215.222656 174.136719 215.300781 174.585938 215.230469 174.960938 C 215.015625 175.863281 212.933594 177.460938 211.523438 178.828125 C 209.96875 180.421875 207.378906 183.527344 206.183594 183.988281 C 205.734375 184.070312 205.210938 184.074219 205.207031 183.851562 C 205.050781 183.328125 210.25 178.84375 211.523438 178.601562 C 211.972656 178.523438 212.347656 178.742188 212.578125 179.039062 C 212.882812 179.414062 213.039062 180.160156 212.746094 180.839844 C 211.945312 182.796875 205.257812 188.125 202.949219 189.578125 C 201.828125 190.191406 200.335938 190.808594 200.257812 190.582031 C 199.953125 190.210938 208.128906 183.441406 210.507812 181.765625 C 211.699219 180.925781 212.738281 180.089844 213.265625 180.15625 C 213.566406 180.15625 213.792969 180.453125 213.722656 180.679688 C 213.65625 181.652344 207.636719 186.296875 205.921875 187.21875 C 205.175781 187.601562 204.351562 187.835938 204.199219 187.6875 C 203.972656 187.238281 211.386719 180.03125 212.738281 179.863281 C 213.113281 179.859375 213.5625 180.078125 213.566406 180.304688 C 213.65625 181.429688 202.503906 190.257812 201.152344 190.046875 C 200.929688 190.050781 200.699219 189.753906 200.773438 189.527344 C 200.832031 188.328125 208.769531 180.660156 209.894531 180.722656 C 210.121094 180.792969 210.351562 181.015625 210.351562 181.316406 C 210.363281 182.066406 207.324219 185.476562 206.578125 185.636719 C 206.277344 185.636719 205.976562 185.492188 205.898438 185.269531 C 205.8125 184.292969 212.996094 176.484375 214.046875 176.472656 C 214.347656 176.46875 214.648438 176.691406 214.578125 176.992188 C 214.515625 178.117188 203.726562 185.667969 202.523438 185.457031 C 202.222656 185.386719 202.070312 185.085938 202.140625 184.785156 C 202.429688 183.734375 209.199219 178.929688 210.253906 179.21875 C 210.554688 179.289062 210.785156 179.738281 210.714844 180.113281 C 210.574219 181.089844 206.046875 185.042969 205.292969 184.976562 C 205.070312 184.976562 204.839844 184.679688 204.839844 184.378906 C 204.902344 183.402344 210.464844 177.941406 211.511719 177.851562 C 211.738281 177.851562 212.039062 178.070312 212.042969 178.296875 C 212.050781 179.046875 207.292969 182.625 205.582031 183.996094 C 204.542969 184.832031 203.28125 185.972656 203.054688 185.824219 C 202.902344 185.753906 202.898438 185.152344 203.191406 184.773438 C 203.632812 183.945312 205.9375 182.117188 206.910156 181.882812 C 207.359375 181.800781 208.035156 181.867188 208.113281 182.09375 C 208.269531 182.691406 202.621094 187.332031 201.796875 187.191406 C 201.496094 187.195312 201.339844 186.894531 201.339844 186.59375 C 201.480469 185.917969 204.679688 183.78125 206.171875 182.863281 C 207.289062 182.25 209.226562 181.253906 209.378906 181.476562 C 209.53125 181.625 208.867188 182.609375 208.199219 183.140625 C 207.160156 184.128906 203.734375 186.34375 203.132812 186.125 C 202.90625 186.050781 202.828125 185.679688 202.898438 185.300781 C 203.40625 183.871094 212.625 176.566406 213.601562 176.855469 C 213.828125 176.925781 213.90625 177.375 213.835938 177.675781 C 213.398438 178.804688 207.886719 182.09375 206.246094 183.015625 C 205.5 183.398438 204.90625 183.777344 204.605469 183.632812 C 204.453125 183.558594 204.445312 182.960938 204.445312 182.960938 C 204.445312 182.960938 204.753906 183.707031 204.753906 183.707031 C 204.753906 183.707031 204.375 183.335938 204.375 183.109375 C 204.515625 182.285156 208.75 178.859375 209.648438 178.847656 C 209.949219 178.847656 210.175781 179.070312 210.253906 179.367188 C 210.339844 180.042969 207.601562 183.375 206.925781 183.457031 C 206.628906 183.535156 206.324219 183.089844 206.324219 183.089844 " clip-rule="nonzero"/></clipPath><clipPath id="fd65554ec3"><path d="M 0 0 L 15.519531 0 L 15.519531 18 L 0 18 Z M 0 0 " clip-rule="nonzero"/></clipPath><clipPath id="230a99a137"><path d="M -0.0078125 0.117188 L 15.492188 -0.0585938 L 15.695312 17.785156 L 0.195312 17.964844 Z M -0.0078125 0.117188 " clip-rule="nonzero"/></clipPath><clipPath id="2d35f87b1b"><path d="M 6.324219 10.089844 C 9.949219 5.847656 10.253906 6.367188 10.253906 6.367188 C 10.253906 6.367188 9.726562 5.847656 9.648438 5.847656 C 9.574219 5.925781 10.105469 6.371094 9.960938 6.671875 C 9.746094 7.574219 5.582031 10.773438 4.828125 10.628906 C 4.605469 10.632812 4.375 10.261719 4.445312 9.960938 C 4.734375 8.90625 12.625 3.566406 13.675781 3.777344 C 13.902344 3.851562 14.128906 4.148438 14.058594 4.449219 C 13.847656 5.652344 6.035156 11.066406 4.324219 12.285156 C 3.730469 12.742188 3.207031 13.199219 3.058594 13.125 C 2.90625 13.050781 2.828125 12.601562 2.972656 12.300781 C 3.488281 11.46875 8.933594 8.933594 9.011719 9.007812 C 9.085938 9.15625 2.546875 14.480469 1.722656 14.265625 C 1.421875 14.195312 1.339844 13.894531 1.339844 13.59375 C 1.40625 13.144531 2.675781 12.378906 3.492188 11.695312 C 4.605469 10.78125 6.90625 8.582031 7.582031 8.574219 C 7.804688 8.570312 8.109375 8.867188 8.113281 9.09375 C 8.042969 9.769531 3.878906 12.890625 3.128906 12.824219 C 2.828125 12.753906 2.601562 12.53125 2.671875 12.230469 C 2.808594 11.101562 10.386719 4.867188 11.511719 4.851562 C 11.8125 4.925781 12.039062 5.070312 12.042969 5.371094 C 12.054688 6.273438 6.195312 12.039062 5.292969 11.976562 C 5.070312 11.976562 4.839844 11.679688 4.839844 11.378906 C 4.902344 10.554688 10.332031 6.589844 10.257812 6.515625 C 10.183594 6.441406 4.613281 11.53125 3.195312 12.074219 C 2.671875 12.230469 2.074219 12.238281 1.996094 12.085938 C 1.917969 11.9375 2.589844 11.40625 3.257812 10.796875 C 5.039062 9.351562 13.292969 2.957031 14.195312 3.398438 C 14.421875 3.542969 14.429688 4.144531 14.210938 4.746094 C 13.554688 6.40625 7.40625 12.851562 6.503906 12.710938 C 6.277344 12.636719 6.121094 12.191406 6.117188 11.890625 C 6.257812 11.0625 8.78125 8.710938 9.449219 8.101562 C 9.746094 7.875 10.046875 7.644531 10.121094 7.71875 C 10.273438 7.792969 10.425781 8.089844 10.277344 8.390625 C 9.917969 9.671875 2.203125 17.1875 1.152344 17.046875 C 0.929688 17.050781 0.773438 16.753906 0.769531 16.453125 C 0.980469 15.25 7.15625 10.902344 9.460938 9.152344 C 10.949219 8.085938 12.582031 6.566406 13.183594 6.707031 C 13.484375 6.707031 13.636719 7.003906 13.640625 7.304688 C 13.503906 8.355469 5.023438 14.601562 4.949219 14.605469 C 4.949219 14.527344 11.769531 7.398438 13.042969 7.3125 C 13.339844 7.308594 13.71875 7.527344 13.722656 7.753906 C 13.730469 8.503906 8.285156 11.265625 6.058594 13.015625 C 4.050781 14.613281 1.6875 17.792969 0.789062 17.878906 C 0.5625 17.953125 0.261719 17.808594 0.257812 17.582031 C 0.0976562 16.609375 11.863281 9.199219 12.070312 7.472656 C 12.136719 7.019531 11.757812 6.5 11.382812 6.503906 C 10.480469 6.363281 6.636719 11.285156 5.738281 11.292969 C 5.4375 11.296875 5.210938 11.074219 5.207031 10.851562 C 5.117188 9.726562 13.792969 1 14.921875 1.0625 C 15.21875 1.058594 15.449219 1.359375 15.449219 1.582031 C 15.316406 2.859375 3.332031 11.023438 3.332031 11.023438 C 3.335938 11.097656 13.507812 2.203125 14.710938 2.339844 C 15.011719 2.414062 15.238281 2.636719 15.167969 2.9375 C 15.03125 4.210938 4.84375 11.753906 3.269531 11.847656 C 2.96875 11.851562 2.664062 11.40625 2.589844 11.40625 C 2.589844 11.480469 3.121094 12 3.046875 12 C 3.046875 12.074219 2.59375 11.78125 2.515625 11.632812 C 2.511719 11.40625 2.886719 11.253906 3.257812 10.875 C 4.519531 9.734375 11.125 3.730469 12.253906 3.871094 C 12.476562 3.867188 12.707031 4.164062 12.710938 4.464844 C 12.570312 5.515625 5.277344 10.550781 3.71875 11.769531 C 3.121094 12.226562 2.828125 12.601562 2.527344 12.605469 C 2.375 12.535156 2.074219 12.3125 2.144531 12.085938 C 2.207031 11.035156 9.558594 4.425781 10.609375 4.488281 C 10.910156 4.484375 11.136719 4.78125 11.140625 5.007812 C 11.074219 5.90625 6.324219 10.089844 5.199219 10.324219 C 4.902344 10.402344 4.523438 10.257812 4.449219 10.109375 C 4.371094 9.960938 4.59375 9.734375 4.816406 9.355469 C 5.773438 7.917969 12.957031 -0.0390625 14.082031 0.0234375 C 14.308594 0.0195312 14.535156 0.242188 14.539062 0.542969 C 14.40625 1.96875 2.753906 12.902344 1.183594 13.070312 C 0.882812 13.074219 0.582031 12.929688 0.578125 12.703125 C 0.570312 12.105469 5.625 8.222656 6.453125 8.285156 C 6.679688 8.359375 6.90625 8.65625 6.835938 8.882812 C 6.691406 9.632812 2.820312 12.003906 1.769531 12.089844 C 1.398438 12.167969 0.871094 12.027344 0.867188 11.726562 C 0.628906 10.601562 11.914062 0.421875 13.265625 0.558594 C 13.5625 0.554688 13.792969 0.925781 13.722656 1.300781 C 13.65625 2.128906 10.546875 5.539062 9.871094 5.546875 C 9.644531 5.550781 9.414062 5.027344 9.414062 4.953125 C 9.414062 4.953125 10.019531 5.394531 10.019531 5.394531 C 10.019531 5.394531 9.417969 5.253906 9.414062 5.027344 C 9.332031 4.429688 12.148438 1.246094 12.746094 1.164062 C 12.972656 1.160156 13.273438 1.308594 13.277344 1.53125 C 13.289062 2.65625 3.265625 11.699219 1.621094 12.015625 C 1.246094 12.097656 0.867188 11.875 0.867188 11.726562 C 0.785156 11.203125 4.953125 8.453125 5.929688 8.441406 C 6.378906 8.4375 6.757812 8.65625 6.835938 8.957031 C 6.84375 9.707031 1.933594 13.214844 1.109375 13.148438 C 0.882812 13.074219 0.65625 12.851562 0.652344 12.554688 C 0.785156 11.050781 12.730469 -0.113281 14.082031 0.0234375 C 14.308594 0.0195312 14.535156 0.242188 14.539062 0.542969 C 14.402344 1.746094 4.667969 9.730469 4.742188 9.730469 C 4.746094 9.804688 9.785156 4.421875 10.609375 4.488281 C 10.910156 4.484375 11.136719 4.78125 11.140625 5.007812 C 11.078125 6.132812 3.949219 12.367188 2.675781 12.53125 C 2.375 12.535156 2.074219 12.386719 2.070312 12.160156 C 1.988281 11.335938 8.902344 6.082031 10.761719 4.785156 C 11.582031 4.253906 12.550781 3.714844 12.625 3.789062 C 12.777344 3.9375 12.335938 4.695312 11.820312 5.300781 C 10.484375 6.816406 4.171875 12.136719 3.046875 12 C 2.820312 12.003906 2.589844 11.707031 2.589844 11.40625 C 2.726562 10.503906 6.824219 7.90625 8.90625 6.382812 C 10.6875 4.9375 13.214844 2.660156 14.261719 2.496094 C 14.636719 2.492188 15.164062 2.710938 15.167969 2.9375 C 15.253906 3.910156 3.488281 11.246094 3.332031 11.023438 C 3.179688 10.800781 13.941406 0.773438 14.921875 1.0625 C 15.222656 1.136719 15.300781 1.585938 15.230469 1.960938 C 15.015625 2.863281 12.933594 4.460938 11.523438 5.828125 C 9.96875 7.421875 7.378906 10.527344 6.183594 10.988281 C 5.734375 11.070312 5.210938 11.074219 5.207031 10.851562 C 5.050781 10.328125 10.25 5.84375 11.523438 5.601562 C 11.972656 5.523438 12.347656 5.742188 12.578125 6.039062 C 12.882812 6.414062 13.039062 7.160156 12.746094 7.839844 C 11.945312 9.796875 5.257812 15.125 2.949219 16.578125 C 1.828125 17.191406 0.335938 17.808594 0.257812 17.582031 C -0.046875 17.210938 8.128906 10.441406 10.507812 8.765625 C 11.699219 7.925781 12.738281 7.089844 13.265625 7.15625 C 13.566406 7.15625 13.792969 7.453125 13.722656 7.679688 C 13.65625 8.652344 7.636719 13.296875 5.921875 14.21875 C 5.175781 14.601562 4.351562 14.835938 4.199219 14.6875 C 3.972656 14.238281 11.386719 7.03125 12.738281 6.863281 C 13.113281 6.859375 13.5625 7.078125 13.566406 7.304688 C 13.65625 8.429688 2.503906 17.257812 1.152344 17.046875 C 0.929688 17.050781 0.699219 16.753906 0.773438 16.527344 C 0.832031 15.328125 8.769531 7.660156 9.894531 7.722656 C 10.121094 7.792969 10.351562 8.015625 10.351562 8.316406 C 10.363281 9.066406 7.324219 12.476562 6.578125 12.636719 C 6.277344 12.636719 5.976562 12.492188 5.898438 12.269531 C 5.8125 11.292969 12.996094 3.484375 14.046875 3.472656 C 14.347656 3.46875 14.648438 3.691406 14.578125 3.992188 C 14.515625 5.117188 3.726562 12.667969 2.523438 12.457031 C 2.222656 12.386719 2.070312 12.085938 2.140625 11.785156 C 2.429688 10.734375 9.199219 5.929688 10.253906 6.21875 C 10.554688 6.289062 10.785156 6.738281 10.714844 7.113281 C 10.574219 8.089844 6.046875 12.042969 5.292969 11.976562 C 5.070312 11.976562 4.839844 11.679688 4.839844 11.378906 C 4.902344 10.402344 10.464844 4.941406 11.511719 4.851562 C 11.738281 4.851562 12.039062 5.070312 12.042969 5.296875 C 12.050781 6.046875 7.292969 9.625 5.582031 10.996094 C 4.542969 11.832031 3.28125 12.972656 3.054688 12.824219 C 2.902344 12.753906 2.898438 12.152344 3.191406 11.773438 C 3.632812 10.945312 5.9375 9.117188 6.910156 8.882812 C 7.359375 8.800781 8.035156 8.867188 8.113281 9.09375 C 8.269531 9.691406 2.621094 14.332031 1.796875 14.191406 C 1.496094 14.195312 1.339844 13.894531 1.339844 13.59375 C 1.480469 12.917969 4.679688 10.78125 6.171875 9.863281 C 7.289062 9.25 9.226562 8.253906 9.378906 8.476562 C 9.53125 8.625 8.867188 9.609375 8.199219 10.140625 C 7.160156 11.128906 3.734375 13.34375 3.132812 13.125 C 2.90625 13.050781 2.828125 12.679688 2.898438 12.300781 C 3.40625 10.871094 12.625 3.566406 13.601562 3.855469 C 13.828125 3.925781 13.90625 4.375 13.835938 4.675781 C 13.398438 5.804688 7.886719 9.09375 6.246094 10.015625 C 5.5 10.398438 4.90625 10.777344 4.605469 10.632812 C 4.453125 10.558594 4.445312 9.960938 4.445312 9.960938 C 4.445312 9.960938 4.753906 10.707031 4.753906 10.707031 C 4.753906 10.707031 4.375 10.335938 4.375 10.109375 C 4.515625 9.285156 8.75 5.859375 9.648438 5.847656 C 9.949219 5.847656 10.175781 6.070312 10.253906 6.367188 C 10.339844 7.042969 7.601562 10.375 6.925781 10.457031 C 6.628906 10.535156 6.324219 10.089844 6.324219 10.089844 " clip-rule="nonzero"/></clipPath><clipPath id="2da0e6cae4"><rect x="0" width="16" y="0" height="18"/></clipPath><clipPath id="2998a72590"><path d="M 106.46875 99.847656 L 256.46875 99.847656 L 256.46875 240.097656 L 106.46875 240.097656 Z M 106.46875 99.847656 " clip-rule="nonzero"/></clipPath><clipPath id="c17a87fa13"><path d="M 185 168 L 252 168 L 252 212 L 185 212 Z M 185 168 " clip-rule="nonzero"/></clipPath><clipPath id="c3482c99db"><path d="M 223.492188 150.867188 L 253.847656 172.886719 L 212.015625 230.5625 L 181.660156 208.546875 Z M 223.492188 150.867188 " clip-rule="nonzero"/></clipPath><clipPath id="d1b0a20bd7"><path d="M 223.492188 150.867188 L 253.847656 172.886719 L 212.015625 230.5625 L 181.660156 208.546875 Z M 223.492188 150.867188 " clip-rule="nonzero"/></clipPath><clipPath id="7ff896371a"><path d="M 223.492188 150.867188 L 253.847656 172.886719 L 212.015625 230.5625 L 181.660156 208.546875 Z M 223.492188 150.867188 " clip-rule="nonzero"/></clipPath><clipPath id="fa96672dfb"><path d="M 117.4375 187.40625 L 117.847656 187.40625 L 117.847656 187.660156 L 117.4375 187.660156 Z M 117.4375 187.40625 " clip-rule="nonzero"/></clipPath><clipPath id="bf43139260"><path d="M 117.824219 187.574219 C 117.074219 187.800781 117.675781 187.425781 117.675781 187.425781 " clip-rule="nonzero"/></clipPath><clipPath id="f67e4c29d1"><path d="M 0.4375 0.40625 L 0.839844 0.40625 L 0.839844 0.660156 L 0.4375 0.660156 Z M 0.4375 0.40625 " clip-rule="nonzero"/></clipPath><clipPath id="40c6c5f6db"><path d="M 0.824219 0.574219 C 0.0742188 0.800781 0.675781 0.425781 0.675781 0.425781 " clip-rule="nonzero"/></clipPath><clipPath id="bfccc333a2"><rect x="0" width="1" y="0" height="1"/></clipPath></defs><g clip-path="url(#0f3184f9a8)"><g clip-path="url(#7f8615e93a)"><g clip-path="url(#dbd4d5d141)"><g transform="matrix(1, 0, 0, 1, 200, 173)"><g clip-path="url(#2da0e6cae4)"><g clip-path="url(#fd65554ec3)"><g clip-path="url(#230a99a137)"><g clip-path="url(#2d35f87b1b)"><path fill="#ffffff" d="M -2.976562 -2.78125 L 18.472656 -3.027344 L 18.746094 20.765625 L -2.703125 21.011719 Z M -2.976562 -2.78125 " fill-opacity="1" fill-rule="nonzero"/></g></g></g></g></g></g></g></g><g clip-path="url(#2998a72590)"><path fill="#ffffff" d="M 255.65625 232.199219 L 255.214844 233.285156 L 254.671875 234.308594 L 254.039062 235.257812 L 253.304688 236.125 L 252.507812 236.882812 L 251.621094 237.550781 L 250.339844 238.277344 L 248.917969 238.816406 L 247.933594 239.054688 L 246.742188 239.246094 L 243.375 239.53125 L 242.375 239.597656 L 241.835938 239.664062 L 240.953125 239.753906 L 193.324219 239.945312 L 188.617188 240.027344 L 186.722656 240.054688 L 184.089844 240.003906 L 181.679688 239.957031 L 134.578125 239.765625 L 132.503906 239.703125 L 130.34375 239.53125 L 128.65625 239.390625 L 126.292969 239.167969 L 124.730469 238.828125 L 123.695312 238.445312 L 122.734375 237.976562 L 121.847656 237.425781 L 121.03125 236.792969 L 120.125 235.894531 L 119.328125 234.871094 L 118.644531 233.722656 L 118.070312 232.441406 L 117.976562 232.308594 L 117.824219 232.242188 L 116.542969 232.085938 L 114.894531 231.863281 L 113.660156 231.550781 L 112.414062 231.058594 L 111.367188 230.457031 L 110.519531 229.8125 L 109.75 229.109375 L 109.066406 228.351562 L 108.464844 227.535156 L 107.765625 226.300781 L 107.222656 224.957031 L 106.851562 223.503906 L 106.644531 221.9375 L 106.628906 221.777344 L 106.46875 218.746094 L 106.46875 115.667969 L 106.527344 114.734375 L 106.714844 113.753906 L 107.019531 112.726562 L 107.445312 111.660156 L 107.972656 110.65625 L 108.597656 109.785156 L 109.183594 109.148438 L 109.820312 108.589844 L 110.546875 108.066406 L 111.328125 107.617188 L 112.183594 107.207031 L 113.148438 106.839844 L 115.417969 106.203125 L 116.578125 106.058594 L 118.269531 106.0625 L 120.261719 106.058594 L 122.949219 105.957031 L 126.554688 105.984375 L 128.3125 106.007812 L 128.425781 105.972656 L 128.492188 105.875 L 128.75 105.171875 L 129.066406 104.5 L 129.742188 103.441406 L 130.558594 102.503906 L 131.53125 101.683594 L 132.613281 101.007812 L 133.800781 100.484375 L 135.054688 100.128906 L 136.351562 99.941406 L 137.679688 99.9375 L 139.253906 100.132812 L 140.703125 100.503906 L 142.027344 101.054688 L 143.226562 101.777344 L 144.1875 102.574219 L 145.050781 103.511719 L 145.808594 104.589844 L 146.472656 105.804688 L 146.59375 105.945312 L 146.777344 105.996094 L 171.734375 105.996094 L 171.878906 105.949219 L 171.972656 105.824219 L 172.402344 104.757812 L 172.925781 103.808594 L 173.546875 102.96875 L 174.265625 102.242188 L 175.042969 101.65625 L 176.167969 101 L 177.3125 100.492188 L 178.472656 100.140625 L 179.644531 99.9375 L 181.007812 99.894531 L 182.390625 100.054688 L 183.789062 100.40625 L 185.214844 100.957031 L 186.050781 101.382812 L 186.816406 101.871094 L 187.519531 102.421875 L 188.152344 103.035156 L 188.664062 103.640625 L 189.125 104.300781 L 189.53125 105.011719 L 189.882812 105.769531 L 190.019531 105.9375 L 190.222656 106 L 213.433594 106 L 213.570312 105.957031 L 213.660156 105.835938 L 214.042969 104.855469 L 214.699219 103.710938 L 215.523438 102.703125 L 216.523438 101.8125 L 217.648438 101.078125 L 218.890625 100.511719 L 220.207031 100.125 L 221.574219 99.933594 L 222.960938 99.9375 L 224.523438 100.15625 L 225.960938 100.542969 L 227.269531 101.105469 L 228.453125 101.839844 L 229.386719 102.621094 L 230.21875 103.535156 L 230.960938 104.578125 L 231.605469 105.753906 L 231.835938 106.011719 L 232.167969 106.105469 L 233.582031 106.058594 L 235.34375 106.023438 L 236.566406 106.167969 L 238.675781 106.71875 L 240.445312 107.410156 L 241.207031 107.808594 L 241.921875 108.265625 L 242.566406 108.765625 L 243.167969 109.324219 L 244.101562 110.464844 L 244.859375 111.769531 L 245.074219 112.425781 L 245.257812 112.972656 L 245.382812 113.097656 L 245.550781 113.148438 L 246.835938 113.261719 L 248.128906 113.503906 L 249.433594 113.871094 L 250.738281 114.375 L 251.839844 114.921875 L 252.828125 115.558594 L 253.699219 116.292969 L 254.449219 117.113281 L 254.910156 117.746094 L 255.308594 118.421875 L 255.65625 119.140625 L 255.9375 119.90625 L 256.171875 120.835938 L 256.335938 122.027344 L 256.433594 123.480469 L 256.464844 125.195312 L 256.449219 225.171875 L 256.378906 227.527344 L 256.214844 229.867188 L 255.988281 231.058594 Z M 255.65625 232.199219 " fill-opacity="1" fill-rule="nonzero"/><path fill="#1b1919" d="M 256.433594 123.480469 L 256.332031 122.027344 L 256.167969 120.835938 L 255.9375 119.90625 L 255.652344 119.140625 L 255.304688 118.421875 L 254.90625 117.746094 L 254.449219 117.113281 L 253.699219 116.292969 L 252.828125 115.558594 L 251.84375 114.921875 L 250.742188 114.375 L 249.433594 113.871094 L 248.132812 113.503906 L 246.835938 113.257812 L 245.550781 113.144531 L 245.382812 113.09375 L 245.257812 112.972656 L 245.074219 112.421875 L 244.859375 111.769531 L 244.105469 110.460938 L 243.171875 109.324219 L 242.570312 108.761719 L 241.925781 108.261719 L 241.210938 107.808594 L 240.449219 107.40625 L 238.683594 106.71875 L 236.570312 106.167969 L 235.351562 106.023438 L 233.585938 106.054688 L 232.171875 106.101562 L 231.839844 106.011719 L 231.609375 105.753906 L 230.96875 104.578125 L 230.226562 103.53125 L 229.390625 102.617188 L 228.457031 101.835938 L 227.277344 101.101562 L 225.964844 100.539062 L 224.527344 100.152344 L 222.964844 99.933594 L 221.578125 99.929688 L 220.210938 100.121094 L 218.894531 100.507812 L 217.652344 101.074219 L 216.527344 101.808594 L 215.527344 102.699219 L 214.703125 103.707031 L 214.046875 104.851562 L 213.664062 105.832031 L 213.574219 105.953125 L 213.4375 105.996094 L 190.226562 105.996094 L 190.023438 105.929688 L 189.886719 105.765625 L 189.535156 105.003906 L 189.128906 104.292969 L 188.667969 103.636719 L 188.15625 103.03125 L 187.523438 102.414062 L 186.820312 101.867188 L 186.054688 101.378906 L 185.21875 100.953125 L 183.792969 100.402344 L 182.394531 100.050781 L 181.011719 99.890625 L 179.648438 99.933594 L 178.472656 100.136719 L 177.316406 100.488281 L 176.171875 100.992188 L 175.046875 101.648438 L 174.269531 102.234375 L 173.550781 102.960938 L 172.929688 103.800781 L 172.40625 104.753906 L 171.980469 105.816406 L 171.886719 105.941406 L 171.738281 105.988281 L 146.78125 105.988281 L 146.597656 105.9375 L 146.472656 105.796875 L 145.8125 104.582031 L 145.050781 103.503906 L 144.1875 102.566406 L 143.226562 101.769531 L 142.027344 101.046875 L 140.703125 100.496094 L 139.253906 100.125 L 137.679688 99.925781 L 136.351562 99.933594 L 135.050781 100.117188 L 133.796875 100.472656 L 132.613281 101 L 131.53125 101.671875 L 130.554688 102.496094 L 129.738281 103.429688 L 129.066406 104.492188 L 128.75 105.160156 L 128.492188 105.863281 L 128.425781 105.960938 L 128.3125 105.996094 L 126.554688 105.972656 L 122.949219 105.945312 L 120.261719 106.046875 L 118.269531 106.050781 L 116.578125 106.046875 L 115.417969 106.191406 L 113.148438 106.828125 L 112.183594 107.195312 L 111.328125 107.605469 L 110.546875 108.058594 L 109.820312 108.578125 L 109.183594 109.140625 L 108.597656 109.773438 L 107.972656 110.648438 L 107.445312 111.648438 L 107.019531 112.71875 L 106.714844 113.742188 L 106.53125 114.722656 L 106.46875 115.660156 L 106.46875 218.738281 L 106.628906 221.769531 L 106.644531 221.929688 L 106.851562 223.496094 L 107.222656 224.949219 L 107.761719 226.292969 L 108.464844 227.527344 L 109.066406 228.339844 L 109.746094 229.097656 L 110.515625 229.800781 L 111.367188 230.445312 L 112.414062 231.046875 L 113.660156 231.539062 L 114.894531 231.855469 L 116.542969 232.074219 L 117.824219 232.234375 L 117.972656 232.300781 L 118.066406 232.429688 L 118.640625 233.710938 L 119.328125 234.859375 L 120.125 235.886719 L 121.03125 236.78125 L 121.847656 237.414062 L 122.734375 237.964844 L 123.695312 238.433594 L 124.726562 238.816406 L 126.289062 239.15625 L 128.65625 239.378906 L 130.339844 239.515625 L 132.5 239.691406 L 134.574219 239.75 L 181.675781 239.941406 L 184.089844 239.988281 L 186.722656 240.039062 L 188.617188 240.015625 L 193.324219 239.933594 L 240.953125 239.742188 L 241.835938 239.652344 L 242.375 239.585938 L 243.375 239.519531 L 246.742188 239.234375 L 247.933594 239.042969 L 248.917969 238.804688 L 250.339844 238.265625 L 251.621094 237.539062 L 252.507812 236.871094 L 253.308594 236.113281 L 254.039062 235.246094 L 254.671875 234.296875 L 255.214844 233.273438 L 255.65625 232.1875 L 255.988281 231.046875 L 256.214844 229.859375 L 256.378906 227.515625 L 256.453125 225.160156 L 256.464844 125.1875 L 256.4375 123.46875 Z M 232.625 107.898438 L 232.628906 107.898438 L 233.683594 107.867188 L 234.722656 107.914062 L 235.746094 108.035156 L 236.75 108.230469 L 237.703125 108.492188 L 238.640625 108.816406 L 239.5625 109.210938 L 240.46875 109.679688 L 241.328125 110.257812 L 242.050781 110.957031 L 242.710938 111.910156 L 243.191406 113.019531 L 243.183594 113.109375 L 243.109375 113.160156 L 233.875 113.160156 L 233.742188 113.113281 L 233.667969 112.988281 L 232.566406 107.972656 L 232.617188 107.898438 Z M 232.625 125.796875 L 233.0625 124.40625 L 233.117188 124.347656 L 233.195312 124.363281 L 233.214844 124.390625 L 233.605469 125.503906 L 233.753906 126.632812 L 233.660156 127.746094 L 233.324219 128.800781 L 233.023438 129.375 L 232.640625 129.914062 L 232.199219 130.386719 L 231.6875 130.816406 L 231.128906 131.179688 L 230.546875 131.464844 L 229.925781 131.675781 L 229.285156 131.800781 L 228.179688 131.816406 L 227.085938 131.582031 L 226.046875 131.117188 L 225.097656 130.417969 L 225.078125 130.390625 L 225.082031 130.3125 L 225.152344 130.277344 L 226.613281 130.261719 L 227.9375 130.054688 L 229.125 129.648438 L 230.175781 129.054688 L 230.308594 128.960938 L 230.429688 128.863281 L 231.308594 128.027344 L 232.035156 127.003906 L 232.617188 125.796875 Z M 215.75 105.730469 L 216.28125 104.898438 L 216.878906 104.171875 L 217.542969 103.546875 L 218.269531 103.019531 L 219.121094 102.574219 L 220.050781 102.242188 L 221.050781 102.027344 L 222.125 101.933594 L 223.234375 101.96875 L 224.339844 102.144531 L 225.386719 102.445312 L 226.386719 102.878906 L 227.273438 103.410156 L 228.070312 104.050781 L 228.726562 104.765625 L 229.269531 105.582031 L 230.019531 107.105469 L 230.632812 108.722656 L 231.109375 110.429688 L 231.449219 112.226562 L 231.773438 115.101562 L 231.894531 117.898438 L 231.808594 120.40625 L 231.515625 122.570312 L 231.292969 123.542969 L 231.03125 124.398438 L 230.71875 125.179688 L 230.34375 125.894531 L 229.941406 126.488281 L 229.476562 127.015625 L 228.980469 127.441406 L 228.417969 127.789062 L 227.695312 128.078125 L 226.886719 128.246094 L 226.023438 128.277344 L 225.078125 128.171875 L 224.390625 128 L 223.933594 127.777344 L 223.640625 127.429688 L 223.527344 126.992188 L 223.613281 125.886719 L 223.910156 124.867188 L 224.179688 124.328125 L 224.519531 123.816406 L 225.019531 123.078125 L 225.414062 122.332031 L 225.84375 121.171875 L 226.105469 119.902344 L 226.226562 118.472656 L 226.246094 116.410156 L 226.246094 115.503906 L 226.179688 114.113281 L 225.976562 112.703125 L 225.628906 111.316406 L 225.167969 110.027344 L 224.589844 108.832031 L 223.921875 107.777344 L 223.136719 106.824219 L 222.285156 106.035156 L 221.5625 105.609375 L 221.210938 105.519531 L 220.871094 105.507812 L 220.480469 105.601562 L 220.101562 105.808594 L 219.824219 105.941406 L 219.523438 105.988281 L 215.898438 105.988281 L 215.761719 105.921875 L 215.734375 105.769531 L 215.75 105.726562 Z M 190.914062 107.941406 L 191.023438 107.894531 L 221.175781 107.894531 L 221.523438 107.972656 L 221.800781 108.199219 L 222.328125 108.925781 L 222.789062 109.683594 L 223.1875 110.46875 L 223.523438 111.285156 L 224.011719 113.015625 L 224.011719 113.027344 L 223.914062 113.132812 L 192.171875 113.132812 L 192.03125 113.082031 L 191.949219 112.957031 L 190.878906 108.070312 L 190.875 108.050781 Z M 190.351562 127.011719 L 190.9375 125.808594 L 191.378906 124.417969 L 191.433594 124.359375 L 191.507812 124.378906 L 191.53125 124.40625 L 191.917969 125.519531 L 192.0625 126.648438 L 191.964844 127.757812 L 191.628906 128.816406 L 191.320312 129.390625 L 190.9375 129.925781 L 190.496094 130.398438 L 189.984375 130.828125 L 189.425781 131.191406 L 188.84375 131.46875 L 188.214844 131.679688 L 187.578125 131.800781 L 186.46875 131.816406 L 185.375 131.578125 L 184.34375 131.105469 L 183.390625 130.40625 L 183.371094 130.378906 L 183.382812 130.300781 L 183.453125 130.265625 L 184.910156 130.253906 L 186.234375 130.046875 L 187.425781 129.648438 L 188.476562 129.054688 L 188.609375 128.960938 L 188.734375 128.867188 L 189.613281 128.035156 L 190.34375 127.011719 Z M 174.070312 105.714844 L 174.609375 104.886719 L 175.207031 104.160156 L 175.867188 103.535156 L 176.59375 103.011719 L 177.449219 102.5625 L 178.375 102.230469 L 179.375 102.019531 L 180.449219 101.925781 L 181.558594 101.964844 L 182.667969 102.140625 L 183.714844 102.441406 L 184.710938 102.875 L 185.59375 103.40625 L 186.390625 104.046875 L 187.050781 104.765625 L 187.589844 105.582031 L 188.339844 107.109375 L 188.949219 108.722656 L 189.425781 110.429688 L 189.761719 112.226562 L 190.085938 115.105469 L 190.203125 117.898438 L 190.113281 120.40625 L 189.824219 122.574219 L 189.601562 123.539062 L 189.335938 124.398438 L 189.023438 125.175781 L 188.644531 125.890625 L 188.238281 126.484375 L 187.773438 127.011719 L 187.273438 127.4375 L 186.714844 127.785156 L 185.992188 128.074219 L 185.183594 128.238281 L 184.324219 128.269531 L 183.375 128.164062 L 182.691406 127.996094 L 182.234375 127.769531 L 181.9375 127.421875 L 181.828125 126.988281 L 181.910156 125.878906 L 182.210938 124.859375 L 182.480469 124.320312 L 182.820312 123.808594 L 183.324219 123.070312 L 183.714844 122.324219 L 184.144531 121.171875 L 184.410156 119.898438 L 184.53125 118.472656 L 184.558594 116.40625 L 184.558594 115.503906 L 184.492188 114.113281 L 184.289062 112.703125 L 183.945312 111.3125 L 183.488281 110.03125 L 182.910156 108.832031 L 182.242188 107.777344 L 181.460938 106.824219 L 180.609375 106.035156 L 179.886719 105.605469 L 179.535156 105.511719 L 179.195312 105.507812 L 178.804688 105.597656 L 178.425781 105.800781 L 178.148438 105.933594 L 177.847656 105.980469 L 174.222656 105.976562 L 174.085938 105.910156 L 174.058594 105.757812 L 174.074219 105.71875 Z M 147.300781 107.949219 L 147.417969 107.890625 L 179.484375 107.890625 L 179.8125 107.964844 L 180.082031 108.175781 L 180.632812 108.917969 L 181.109375 109.703125 L 181.5 110.46875 L 181.824219 111.269531 L 182.304688 112.96875 L 182.28125 113.074219 L 182.191406 113.125 L 148.652344 113.125 L 148.472656 113.058594 L 148.382812 112.894531 L 148.355469 112.695312 L 147.855469 109.769531 L 147.589844 108.832031 L 147.28125 108.105469 L 147.269531 108.074219 L 147.296875 107.945312 Z M 147.328125 126.136719 L 147.6875 124.972656 L 147.726562 124.898438 L 147.882812 124.84375 L 148.007812 124.957031 L 148.238281 125.847656 L 148.308594 126.738281 L 148.222656 127.632812 L 147.988281 128.488281 L 147.472656 129.503906 L 146.738281 130.386719 L 145.832031 131.085938 L 144.75 131.59375 L 143.867188 131.804688 L 142.75 131.824219 L 141.605469 131.566406 L 140.507812 131.066406 L 139.445312 130.3125 L 139.417969 130.273438 L 139.4375 130.175781 L 139.527344 130.140625 L 140.765625 130.273438 L 141.929688 130.234375 L 143.007812 130.027344 L 144.007812 129.652344 L 144.761719 129.226562 L 145.460938 128.679688 L 146.105469 128.027344 L 146.699219 127.261719 L 147.328125 126.140625 Z M 130.566406 105.824219 L 131.183594 104.816406 L 131.925781 103.957031 L 132.664062 103.328125 L 133.476562 102.820312 L 134.378906 102.40625 L 135.339844 102.121094 L 136.339844 101.953125 L 137.375 101.910156 L 138.421875 101.996094 L 139.464844 102.203125 L 140.851562 102.691406 L 141.492188 103.027344 L 142.078125 103.414062 L 142.710938 103.921875 L 143.277344 104.496094 L 143.800781 105.15625 L 144.265625 105.867188 L 144.6875 106.660156 L 145.078125 107.574219 L 145.722656 109.609375 L 146.28125 112.28125 L 146.605469 114.898438 L 146.710938 117.546875 L 146.597656 120.234375 L 146.269531 122.957031 L 145.945312 124.195312 L 145.335938 125.625 L 145.035156 126.160156 L 144.683594 126.636719 L 144.265625 127.074219 L 143.804688 127.445312 L 143.199219 127.808594 L 142.554688 128.070312 L 141.875 128.234375 L 141.175781 128.296875 L 140.46875 128.269531 L 139.753906 128.136719 L 139.054688 127.910156 L 138.375 127.582031 L 138.125 127.328125 L 138.035156 126.988281 L 138.136719 125.941406 L 138.382812 124.972656 L 138.71875 124.289062 L 139.3125 123.484375 L 139.828125 122.792969 L 140.136719 122.230469 L 140.730469 120.59375 L 140.894531 119.894531 L 140.976562 119.277344 L 141.089844 116.960938 L 141.078125 115.195312 L 140.941406 113.609375 L 140.664062 112.117188 L 140.308594 110.890625 L 139.847656 109.6875 L 139.46875 108.914062 L 139 108.132812 L 138.460938 107.386719 L 137.902344 106.746094 L 137.351562 106.226562 L 136.824219 105.851562 L 136.304688 105.59375 L 135.78125 105.457031 L 135.5625 105.496094 L 134.621094 105.972656 L 134.457031 106.015625 L 130.6875 106.015625 L 130.65625 106.011719 L 130.566406 105.941406 L 130.570312 105.824219 Z M 118.265625 118.652344 L 117.667969 120.039062 L 117.3125 121.378906 L 117.191406 122.664062 L 117.191406 225.726562 L 117.25 227.671875 L 117.433594 230.054688 L 117.382812 230.199219 L 117.238281 230.257812 L 117.210938 230.253906 L 115.160156 229.921875 L 114.28125 229.695312 L 113.214844 229.246094 L 112.351562 228.742188 L 111.53125 228.074219 L 110.894531 227.429688 L 110.339844 226.746094 L 109.863281 226.027344 L 109.457031 225.277344 L 109.097656 224.394531 L 108.839844 223.464844 L 108.671875 222.488281 L 108.601562 221.472656 L 108.535156 220.472656 L 108.476562 219.570312 L 108.476562 115.667969 L 108.566406 114.546875 L 108.796875 113.492188 L 109.171875 112.515625 L 109.683594 111.617188 L 110.375 110.773438 L 111.210938 110.035156 L 112.15625 109.429688 L 113.238281 108.941406 L 114.875 108.398438 L 116.347656 108.066406 L 117.621094 107.917969 L 119.035156 107.886719 L 135.84375 107.890625 L 136.355469 108.011719 L 136.757812 108.355469 L 137.507812 109.511719 L 138.105469 110.671875 L 138.546875 111.839844 L 138.835938 113.015625 L 138.839844 113.039062 L 138.789062 113.160156 L 138.664062 113.199219 L 138.058594 113.136719 L 129.078125 113.164062 L 128.042969 113.136719 L 127.0625 113.195312 L 126.132812 113.328125 L 125.253906 113.550781 L 123.023438 114.324219 L 122.144531 114.714844 L 121.359375 115.136719 L 120.652344 115.601562 L 120.054688 116.09375 L 119.539062 116.625 L 119.089844 117.222656 L 118.257812 118.660156 Z M 254.457031 226.078125 L 254.367188 227.824219 L 254.292969 229.140625 L 254.214844 229.929688 L 254.023438 230.769531 L 253.722656 231.660156 L 253.316406 232.601562 L 252.832031 233.484375 L 252.277344 234.277344 L 251.652344 234.976562 L 250.957031 235.585938 L 249.9375 236.25 L 248.792969 236.753906 L 247.53125 237.101562 L 246.144531 237.289062 L 242.726562 237.570312 L 241.082031 237.691406 L 239.296875 237.738281 L 237.320312 237.757812 L 208.34375 237.945312 L 186.804688 237.996094 L 165.265625 237.945312 L 136.289062 237.757812 L 134.3125 237.738281 L 132.527344 237.691406 L 130.882812 237.570312 L 127.464844 237.289062 L 126.078125 237.101562 L 124.816406 236.753906 L 123.667969 236.25 L 122.648438 235.585938 L 121.957031 234.976562 L 121.332031 234.277344 L 120.777344 233.484375 L 120.292969 232.601562 L 119.886719 231.660156 L 119.585938 230.769531 L 119.394531 229.929688 L 119.316406 229.140625 L 119.242188 227.824219 L 119.152344 226.078125 L 119.148438 143.230469 L 119.183594 143.140625 L 119.273438 143.101562 L 186.804688 143.191406 L 254.335938 143.101562 L 254.425781 143.140625 L 254.464844 143.230469 Z M 254.382812 141.160156 L 119.332031 141.160156 L 119.199219 141.105469 L 119.148438 140.976562 L 119.160156 124.835938 L 119.203125 123.257812 L 119.308594 121.929688 L 119.492188 120.84375 L 119.742188 120.011719 L 120.058594 119.34375 L 120.679688 118.414062 L 121.488281 117.570312 L 122.4375 116.851562 L 123.554688 116.234375 L 124.8125 115.742188 L 126.191406 115.378906 L 127.679688 115.148438 L 129.210938 115.0625 L 138.925781 115.046875 L 139.121094 115.128906 L 139.195312 115.324219 L 139.078125 117.644531 L 138.820312 120.046875 L 138.761719 120.359375 L 138.472656 121.144531 L 137.980469 121.882812 L 137.246094 122.890625 L 136.679688 123.957031 L 136.304688 125.035156 L 136.113281 126.160156 L 136.097656 126.933594 L 136.171875 127.730469 L 136.324219 128.488281 L 136.550781 129.199219 L 136.851562 129.898438 L 137.222656 130.542969 L 138.003906 131.542969 L 138.9375 132.375 L 140.015625 133.046875 L 141.195312 133.519531 L 142.429688 133.78125 L 143.695312 133.824219 L 144.921875 133.644531 L 146.109375 133.238281 L 146.835938 132.859375 L 147.523438 132.378906 L 148.148438 131.824219 L 148.726562 131.175781 L 149.394531 130.183594 L 149.878906 129.125 L 150.195312 127.894531 L 150.300781 126.589844 L 150.25 125.8125 L 150.046875 124.835938 L 149.699219 123.878906 L 149.195312 122.941406 L 148.542969 122.027344 L 148.457031 121.722656 L 148.605469 120.132812 L 148.679688 118.523438 L 148.683594 116.898438 L 148.617188 115.25 L 148.667969 115.109375 L 148.808594 115.042969 L 182.53125 115.042969 L 182.65625 115.101562 L 182.699219 115.234375 L 182.351562 120.1875 L 182.175781 120.992188 L 181.851562 121.625 L 181.230469 122.550781 L 180.65625 123.488281 L 180.238281 124.449219 L 179.964844 125.46875 L 179.855469 126.488281 L 179.925781 127.738281 L 180.214844 128.9375 L 180.726562 130.09375 L 181.441406 131.148438 L 182.3125 132.046875 L 183.347656 132.792969 L 184.515625 133.351562 L 185.742188 133.695312 L 186.453125 133.792969 L 187.421875 133.808594 L 188.367188 133.6875 L 189.320312 133.429688 L 190.21875 133.042969 L 191.054688 132.535156 L 191.816406 131.914062 L 192.464844 131.214844 L 193.015625 130.421875 L 193.601562 129.21875 L 193.953125 127.96875 L 194.042969 127.238281 L 194.058594 126.496094 L 193.90625 125.203125 L 193.53125 124.003906 L 193.179688 123.292969 L 192.738281 122.625 L 192.054688 121.699219 L 191.980469 121.402344 L 192.164062 118.242188 L 192.15625 116.722656 L 192.082031 115.246094 L 192.128906 115.109375 L 192.261719 115.046875 L 224.042969 115.046875 L 224.09375 115.054688 L 224.253906 115.148438 L 224.320312 115.324219 L 224.242188 117.695312 L 224.050781 120.125 L 223.878906 120.929688 L 223.554688 121.628906 L 222.949219 122.523438 L 222.753906 122.792969 L 222.226562 123.675781 L 221.785156 124.820312 L 221.566406 126.007812 L 221.5625 127.25 L 221.777344 128.476562 L 222.199219 129.660156 L 222.820312 130.753906 L 223.605469 131.707031 L 224.558594 132.511719 L 225.160156 132.894531 L 226.285156 133.402344 L 227.460938 133.703125 L 228.691406 133.800781 L 229.914062 133.699219 L 231.097656 133.398438 L 232.210938 132.894531 L 233.199219 132.222656 L 234.058594 131.371094 L 234.636719 130.574219 L 235.105469 129.664062 L 235.453125 128.699219 L 235.671875 127.75 L 235.761719 126.8125 L 235.71875 125.894531 L 235.5 124.828125 L 235.101562 123.785156 L 234.523438 122.761719 L 233.761719 121.761719 L 233.679688 121.609375 L 233.660156 121.433594 L 233.851562 118.265625 L 233.847656 116.75 L 233.773438 115.269531 L 233.828125 115.117188 L 233.976562 115.050781 L 243.472656 115.050781 L 245.726562 115.136719 L 246.757812 115.273438 L 247.757812 115.46875 L 248.679688 115.722656 L 249.570312 116.046875 L 250.402344 116.421875 L 251.207031 116.871094 L 252.339844 117.671875 L 252.734375 118.054688 L 253.09375 118.523438 L 253.746094 119.742188 L 254.242188 121.242188 L 254.382812 121.96875 L 254.433594 122.59375 L 254.460938 141.085938 L 254.378906 141.171875 Z M 254.382812 141.160156 " fill-opacity="1" fill-rule="nonzero"/></g><path stroke-linecap="butt" transform="matrix(-0.00577471, 0.749978, -0.749978, -0.00577471, 207.283848, 160.063158)" fill="none" stroke-linejoin="miter" d="M -0.00111642 1.998324 L 36.854164 2.001011 " stroke="#000000" stroke-width="4" stroke-opacity="1" stroke-miterlimit="4"/><g clip-path="url(#c17a87fa13)"><g clip-path="url(#c3482c99db)"><g clip-path="url(#d1b0a20bd7)"><g clip-path="url(#7ff896371a)"><path fill="#000000" d="M 185.28125 210.835938 C 185.175781 210.160156 188.878906 206.1875 192.632812 202.953125 L 193.945312 201.820312 L 193.730469 200.238281 C 193.324219 197.222656 193.472656 194.535156 194.171875 192.304688 C 194.550781 191.09375 195.332031 189.699219 195.546875 189.855469 C 195.597656 189.890625 195.785156 190.875 195.964844 192.042969 C 196.265625 193.980469 197.222656 196.632812 197.488281 196.265625 C 197.550781 196.179688 197.472656 195.636719 197.316406 195.058594 C 196.90625 193.546875 197.0625 191.703125 197.785156 189.398438 C 198.34375 187.632812 198.617188 187.09375 200.070312 184.9375 C 201.75 182.441406 202.691406 181.417969 204.261719 180.382812 C 205.109375 179.824219 205.445312 179.84375 205.238281 180.441406 C 204.667969 182.113281 204.285156 184.03125 204.203125 185.609375 C 204.148438 186.640625 204.140625 187.507812 204.179688 187.535156 C 204.21875 187.566406 204.542969 186.640625 204.894531 185.480469 C 206.363281 180.652344 207.925781 178.007812 210.421875 176.152344 C 212.527344 174.589844 214.101562 173.734375 216.695312 172.742188 C 221.429688 170.941406 227.800781 169.535156 227.917969 170.269531 C 227.953125 170.5 225.242188 175.105469 224.28125 176.441406 C 223.816406 177.09375 223.527344 177.648438 223.625 177.71875 C 223.726562 177.792969 224.261719 177.195312 224.953125 176.242188 C 226.835938 173.648438 229.839844 171.078125 232.226562 170.015625 C 233.433594 169.476562 237.675781 168.882812 240.582031 168.84375 C 243.308594 168.808594 246.441406 169.296875 248.566406 170.089844 C 251.492188 171.179688 252.265625 172.214844 251.824219 174.453125 C 251.589844 175.632812 251.402344 175.988281 249.835938 178.273438 C 248.058594 180.863281 245.699219 183.515625 243.738281 185.136719 C 242.011719 186.558594 239.929688 187.003906 235.519531 186.902344 C 234.285156 186.875 233.285156 186.910156 233.292969 186.980469 C 233.304688 187.050781 234.652344 187.488281 236.285156 187.953125 C 237.917969 188.417969 239.355469 188.867188 239.472656 188.953125 C 239.808594 189.199219 239.488281 189.507812 237.042969 191.296875 C 232.046875 194.957031 226.601562 197.941406 223.945312 198.476562 C 222.222656 198.820312 220.757812 198.695312 217.019531 197.886719 C 215.851562 197.632812 214.699219 197.457031 214.457031 197.496094 C 214.070312 197.554688 214.136719 197.625 215.054688 198.101562 C 216.578125 198.898438 219.632812 201.160156 219.546875 201.429688 C 219.445312 201.75 215.652344 202.882812 212.898438 203.414062 C 210.210938 203.933594 207.558594 203.902344 205.335938 203.332031 C 204.484375 203.113281 203.742188 202.988281 203.695312 203.054688 C 203.585938 203.207031 204.1875 203.839844 205.714844 205.183594 C 206.601562 205.960938 206.789062 206.210938 206.535156 206.273438 C 205.820312 206.460938 201.339844 205.503906 198.691406 204.601562 C 194.46875 203.164062 195.269531 202.945312 191.539062 206.558594 C 187.832031 210.148438 187.003906 210.871094 186.28125 211.148438 C 185.765625 211.351562 185.339844 211.21875 185.28125 210.835938 Z M 194.886719 203.066406 C 195.152344 202.703125 201.078125 197.710938 202.609375 196.5625 C 207.84375 192.640625 217.390625 186.582031 222.671875 183.824219 C 224.378906 182.933594 226.503906 181.753906 227.394531 181.203125 C 228.285156 180.648438 229.347656 180 229.753906 179.761719 C 230.160156 179.519531 230.460938 179.296875 230.421875 179.269531 C 230.28125 179.167969 228.371094 180.101562 223.203125 182.796875 C 215.785156 186.664062 210.851562 189.589844 206.574219 192.652344 C 202.640625 195.464844 197.871094 199.316406 197.195312 200.222656 C 196.972656 200.523438 196.292969 201.253906 195.679688 201.847656 C 195.070312 202.441406 194.628906 202.96875 194.707031 203.027344 C 194.78125 203.078125 194.863281 203.097656 194.886719 203.066406 Z M 194.886719 203.066406 " fill-opacity="1" fill-rule="nonzero"/></g></g></g></g><path stroke-linecap="butt" transform="matrix(0, 0.75, -0.75, 0, 146.545072, 160.049404)" fill="none" stroke-linejoin="miter" d="M 0.00183648 1.997597 L 68.928924 1.997597 " stroke="#000000" stroke-width="4" stroke-opacity="1" stroke-miterlimit="4"/><path stroke-linecap="butt" transform="matrix(0, 0.75, -0.75, 0, 166.903105, 160.049404)" fill="none" stroke-linejoin="miter" d="M 0.00183648 2.001015 L 68.928924 2.001015 " stroke="#000000" stroke-width="4" stroke-opacity="1" stroke-miterlimit="4"/><path stroke-linecap="butt" transform="matrix(0, 0.75, -0.75, 0, 187.261149, 160.049404)" fill="none" stroke-linejoin="miter" d="M 0.00183648 1.99924 L 68.928924 1.99924 " stroke="#000000" stroke-width="4" stroke-opacity="1" stroke-miterlimit="4"/><g clip-path="url(#fa96672dfb)"><g clip-path="url(#bf43139260)"><g transform="matrix(1, 0, 0, 1, 117, 187)"><g clip-path="url(#bfccc333a2)"><g clip-path="url(#f67e4c29d1)"><g clip-path="url(#40c6c5f6db)"><rect x="-199.5" width="540" fill="#ffffff" height="539.999987" y="-269.499998" fill-opacity="1"/></g></g></g></g></g></g><path stroke-linecap="butt" transform="matrix(0.000000001309, 0.75, -0.75, 0.000000001309, 207.282617, 202.502917)" fill="none" stroke-linejoin="miter" d="M 0.00131886 2.001823 L 12.324236 2.001823 " stroke="#000000" stroke-width="4" stroke-opacity="1" stroke-miterlimit="4"/><path stroke-linecap="butt" transform="matrix(0.75, 0.000000000000000572, -0.000000000000000572, 0.75, 130.47625, 171.658611)" fill="none" stroke-linejoin="miter" d="M 0.000416224 2.00206 L 111.875424 2.00206 " stroke="#000000" stroke-width="4" stroke-opacity="1" stroke-miterlimit="4"/><path stroke-linecap="butt" transform="matrix(0.75, 0.000000000000000213, -0.000000000000000213, 0.75, 130.47625, 189.449988)" fill="none" stroke-linejoin="miter" d="M 0.000416224 1.998975 L 100.130631 1.998975 " stroke="#000000" stroke-width="4" stroke-opacity="1" stroke-miterlimit="4"/></svg>